<?xml version="1.0" encoding="UTF-8"?>
<svg width="20px" height="20px" version="1.1" viewBox="0 0 700 700" xmlns="http://www.w3.org/2000/svg">
 <path fill = "#fdcc28" d="m618.11 197.29h-183.32l-57.812-177.85c-4.25-12.977-15.418-19.434-26.648-19.434-0.10156 0-0.23047 0.066406-0.33203 0.066406v-0.066406c-1.5469 0-3.0625 0.46094-4.6094 0.72656-1.1875 0.19531-2.4375 0.19531-3.625 0.55859-1.3516 0.42969-2.5352 1.2188-3.8516 1.8438-1.2852 0.625-2.6719 1.0859-3.8906 1.9102-0.85547 0.59375-1.5117 1.5156-2.3359 2.2422-3.625 3.1953-6.7227 7.1797-8.4688 12.551l-57.809 177.45h-183.52c-6.918 0-12.848 2.207-17.426 5.7656-13.77 10.703-15.812 33.566 1.2852 45.523l147.31 102.15-56.859 170.54c-1.0195 3.0312-1.3477 5.9297-1.4141 8.793-0.035156 0.79297 0.066407 1.5508 0.13281 2.3086 0.12891 2.0742 0.46094 4.0508 1.0195 5.9609 0.19922 0.75781 0.39453 1.4844 0.66016 2.207 0.85547 2.1758 1.9102 4.2188 3.2266 6.0938 0.16406 0.23047 0.29688 0.52734 0.46094 0.75781 1.582 2.1094 3.4609 3.9531 5.5352 5.5352 0.49219 0.39453 1.0195 0.69141 1.5469 1.0195 1.6484 1.1211 3.3594 2.0781 5.1719 2.8359 0.75781 0.29297 1.4844 0.55859 2.2422 0.82031 1.875 0.59375 3.8516 0.98828 5.8281 1.1562 0.66016 0.0625 1.2539 0.23047 1.9102 0.23047 0.19922 0.03125 0.39844 0.097656 0.59375 0.097656 1.5469 0 3.0977-0.46094 4.6797-0.75781 1.1172-0.19922 2.2383-0.16406 3.3242-0.52734 2.1406-0.66016 4.2188-1.8438 6.2617-3.0977 0.69141-0.42578 1.4141-0.55859 2.1055-1.0547l133.18-95.891 17.391-12.516 150.57 109.89c5.2734 3.8203 10.969 5.5 16.504 5.5 17.754 0 33.535-17.559 26.914-37.617l-56.922-172.28 147.05-102.15c22.863-15.91 11.695-51.289-16.074-51.289zm-159.17 112.89-30.305 21.047 47.961 145.17-97.375-71.086-28.953-21.117-0.26562 0.19922v-287.21l0.13281-0.42578 48.754 149.95h151.36z" fill-rule="evenodd"/>
</svg>
