<?xml version="1.0" encoding="UTF-8"?>
<svg width="20px" height="20px" version="1.1" viewBox="0 0 700 700" xmlns="http://www.w3.org/2000/svg">
 <path fill = "#fdcc28" d="m351.99 36.871c-9.4453-0.085938-12.863 4.7773-15.141 7.4102-12.824 11.121-59.605 156.47-59.605 156.47s-147.34-3.4883-166.2 5.3594c-3.2148 1.3047-8.8516 2.9375-11.859 11.961-3.0078 9.0234 0.49609 13.793 2.2773 16.789 9.4297 18.383 129.26 105.44 129.26 105.44s-47.926 130.98-46.262 160.99c0.23438 3.4883 0.042969 9.3984 7.625 15.07 7.5859 5.6719 13.164 3.7773 16.543 2.9961 12.871 1.2422 139.44-91.316 139.44-91.316s84.293 65.496 128.96 90.707c12.941 7.0625 19.688 4.2773 25.246 0.76172 7.8398-4.4883 8.6992-13.586 7.6094-24.32-10.52-54.52-31.156-107.27-42.734-152.48 45.316-36.477 92.055-64.426 125.47-95.562 8.2969-7.5586 11.02-15.109 8.4531-23.988-2.4648-8.9609-8.4336-10.844-11.621-12.215-17.641-8.9609-166.1-8.75-166.1-8.75s-28.383-114.75-56.426-157.6c-5.3086-6.3594-7.4023-7.3594-14.934-7.7188z"/>
</svg>
