<?xml version="1.0" encoding="UTF-8"?>
<svg width="30px" height="30px" version="1.1" viewBox="0 0 700 700" xmlns="http://www.w3.org/2000/svg" xmlns:xlink="http://www.w3.org/1999/xlink">
 <defs>
  <symbol id="o" overflow="visible">
   <path d="m30.625-1.8281c-1.5742 0.8125-3.2188 1.4297-4.9375 1.8438-1.7109 0.41406-3.4922 0.625-5.3438 0.625-5.5547 0-9.9531-1.5469-13.203-4.6406-3.2422-3.1016-4.8594-7.3125-4.8594-12.625 0-5.332 1.6172-9.5508 4.8594-12.656 3.25-3.1016 7.6484-4.6562 13.203-4.6562 1.8516 0 3.6328 0.21094 5.3438 0.625 1.7188 0.41797 3.3633 1.0391 4.9375 1.8594v6.8906c-1.5938-1.082-3.168-1.875-4.7188-2.375-1.543-0.50781-3.168-0.76562-4.875-0.76562-3.0625 0-5.4766 0.98438-7.2344 2.9531-1.7617 1.9609-2.6406 4.668-2.6406 8.125 0 3.4375 0.87891 6.1406 2.6406 8.1094 1.7578 1.9609 4.1719 2.9375 7.2344 2.9375 1.707 0 3.332-0.25 4.875-0.75 1.5508-0.50781 3.125-1.3125 4.7188-2.4062z"/>
  </symbol>
  <symbol id="c" overflow="visible">
   <path d="m22.406-18.188c-0.69922-0.33203-1.3984-0.57812-2.0938-0.73438-0.6875-0.15625-1.3828-0.23438-2.0781-0.23438-2.0547 0-3.6367 0.66406-4.75 1.9844-1.1055 1.3125-1.6562 3.1992-1.6562 5.6562v11.516h-7.9844v-25h7.9844v4.1094c1.0312-1.6328 2.2109-2.8281 3.5469-3.5781 1.332-0.75781 2.9258-1.1406 4.7812-1.1406 0.26953 0 0.5625 0.015625 0.875 0.046875 0.3125 0.023438 0.76562 0.070312 1.3594 0.14062z"/>
  </symbol>
  <symbol id="b" overflow="visible">
   <path d="m28.797-12.562v2.2656h-18.688c0.19531 1.875 0.875 3.2812 2.0312 4.2188 1.1641 0.9375 2.7891 1.4062 4.875 1.4062 1.6758 0 3.3945-0.24219 5.1562-0.73438 1.7695-0.5 3.582-1.2539 5.4375-2.2656v6.1562c-1.8867 0.71094-3.7773 1.2461-5.6719 1.6094-1.8867 0.36328-3.7734 0.54688-5.6562 0.54688-4.5312 0-8.0547-1.1445-10.562-3.4375-2.5-2.3008-3.75-5.5312-3.75-9.6875 0-4.0703 1.2266-7.2734 3.6875-9.6094 2.4688-2.3438 5.8594-3.5156 10.172-3.5156 3.9258 0 7.0664 1.1875 9.4219 3.5625 2.3633 2.3672 3.5469 5.5273 3.5469 9.4844zm-8.2188-2.6562c0-1.5195-0.44531-2.7422-1.3281-3.6719-0.88672-0.9375-2.043-1.4062-3.4688-1.4062-1.543 0-2.7969 0.4375-3.7656 1.3125-0.96875 0.86719-1.5742 2.1211-1.8125 3.7656z"/>
  </symbol>
  <symbol id="a" overflow="visible">
   <path d="m15.047-11.25c-1.668 0-2.9219 0.28906-3.7656 0.85938-0.84375 0.5625-1.2656 1.3906-1.2656 2.4844 0 1.0117 0.33594 1.8047 1.0156 2.375 0.6875 0.57422 1.6289 0.85938 2.8281 0.85938 1.5078 0 2.7734-0.53516 3.7969-1.6094 1.0312-1.082 1.5469-2.4297 1.5469-4.0469v-0.92188zm12.203-3.0156v14.266h-8.0469v-3.7031c-1.0742 1.5234-2.2812 2.625-3.625 3.3125-1.3359 0.6875-2.9648 1.0312-4.8906 1.0312-2.5859 0-4.6836-0.75391-6.2969-2.2656-1.6172-1.5078-2.4219-3.4688-2.4219-5.875 0-2.9375 1.0039-5.0859 3.0156-6.4531 2.0195-1.3633 5.1875-2.0469 9.5-2.0469h4.7188v-0.625c0-1.2695-0.5-2.1953-1.5-2.7812-1-0.59375-2.5586-0.89062-4.6719-0.89062-1.7109 0-3.3047 0.17188-4.7812 0.51562-1.4688 0.34375-2.8359 0.85938-4.0938 1.5469v-6.0938c1.707-0.41406 3.4258-0.73438 5.1562-0.95312 1.7266-0.21875 3.4531-0.32812 5.1719-0.32812 4.5078 0 7.7656 0.89062 9.7656 2.6719s3 4.6719 3 8.6719z"/>
  </symbol>
  <symbol id="i" overflow="visible">
   <path d="m12.562-32.094v7.0938h8.25v5.7188h-8.25v10.594c0 1.168 0.22656 1.9531 0.6875 2.3594 0.46875 0.40625 1.3828 0.60938 2.75 0.60938h4.1094v5.7188h-6.8438c-3.1562 0-5.3984-0.65625-6.7188-1.9688-1.3125-1.3203-1.9688-3.5625-1.9688-6.7188v-10.594h-3.9688v-5.7188h3.9688v-7.0938z"/>
  </symbol>
  <symbol id="h" overflow="visible">
   <path d="m20.844-21.344v-13.391h8.0469v34.734h-8.0469v-3.6094c-1.0938 1.4688-2.3086 2.5469-3.6406 3.2344-1.3242 0.67578-2.8555 1.0156-4.5938 1.0156-3.0859 0-5.6172-1.2227-7.5938-3.6719-1.9805-2.4453-2.9688-5.5977-2.9688-9.4531 0-3.8516 0.98828-7.0039 2.9688-9.4531 1.9766-2.4453 4.5078-3.6719 7.5938-3.6719 1.7266 0 3.2578 0.35156 4.5938 1.0469 1.332 0.6875 2.5469 1.7617 3.6406 3.2188zm-5.2656 16.188c1.7188 0 3.0234-0.625 3.9219-1.875 0.89453-1.25 1.3438-3.0664 1.3438-5.4531 0-2.375-0.44922-4.1875-1.3438-5.4375-0.89844-1.25-2.2031-1.875-3.9219-1.875-1.6992 0-3 0.625-3.9062 1.875-0.89844 1.25-1.3438 3.0625-1.3438 5.4375 0 2.3867 0.44531 4.2031 1.3438 5.4531 0.90625 1.25 2.207 1.875 3.9062 1.875z"/>
  </symbol>
  <symbol id="g" overflow="visible">
   <path d="m17.141-5.1562c1.7188 0 3.0234-0.625 3.9219-1.875 0.89453-1.25 1.3438-3.0664 1.3438-5.4531 0-2.375-0.44922-4.1875-1.3438-5.4375-0.89844-1.25-2.2031-1.875-3.9219-1.875-1.7109 0-3.0234 0.63281-3.9375 1.8906-0.91797 1.25-1.375 3.0586-1.375 5.4219 0 2.375 0.45703 4.1953 1.375 5.4531 0.91406 1.25 2.2266 1.875 3.9375 1.875zm-5.3125-16.188c1.1016-1.457 2.3203-2.5312 3.6562-3.2188 1.3438-0.69531 2.8828-1.0469 4.625-1.0469 3.082 0 5.6133 1.2266 7.5938 3.6719 1.9766 2.4492 2.9688 5.6016 2.9688 9.4531 0 3.8555-0.99219 7.0078-2.9688 9.4531-1.9805 2.4492-4.5117 3.6719-7.5938 3.6719-1.7422 0-3.2812-0.34375-4.625-1.0312-1.3359-0.6875-2.5547-1.7578-3.6562-3.2188v3.6094h-7.9844v-34.734h7.9844z"/>
  </symbol>
  <symbol id="f" overflow="visible">
   <path d="m0.5625-25h7.9844l6.7188 16.969 5.7188-16.969h7.9844l-10.5 27.359c-1.0625 2.7891-2.2969 4.7383-3.7031 5.8438-1.4062 1.1016-3.2617 1.6562-5.5625 1.6562h-4.625v-5.2344h2.5c1.3516 0 2.3359-0.21875 2.9531-0.65625 0.61328-0.42969 1.0938-1.1992 1.4375-2.3125l0.23438-0.70312z"/>
  </symbol>
  <symbol id="e" overflow="visible">
   <path d="m4.2031-33.328h8.5938v33.328h-8.5938z"/>
  </symbol>
  <symbol id="n" overflow="visible">
   <path d="m27.016-20.844c1.0078-1.5508 2.207-2.7344 3.5938-3.5469 1.3945-0.8125 2.9258-1.2188 4.5938-1.2188 2.875 0 5.0625 0.88672 6.5625 2.6562 1.5 1.7734 2.25 4.3516 2.25 7.7344v15.219h-8.0312v-13.031c0.019531-0.19531 0.03125-0.39844 0.03125-0.60938 0.007813-0.20703 0.015625-0.50391 0.015625-0.89062 0-1.7695-0.26172-3.0508-0.78125-3.8438-0.52344-0.80078-1.3672-1.2031-2.5312-1.2031-1.5117 0-2.6836 0.625-3.5156 1.875-0.82422 1.25-1.25 3.0586-1.2812 5.4219v12.281h-8.0312v-13.031c0-2.7695-0.24219-4.5508-0.71875-5.3438-0.46875-0.80078-1.3203-1.2031-2.5469-1.2031-1.5312 0-2.7148 0.63281-3.5469 1.8906-0.83594 1.25-1.25 3.0469-1.25 5.3906v12.297h-8.0312v-25h8.0312v3.6562c0.98828-1.4141 2.1172-2.4766 3.3906-3.1875 1.2695-0.71875 2.6719-1.0781 4.2031-1.0781 1.7266 0 3.2539 0.41797 4.5781 1.25 1.3203 0.83594 2.3281 2.0078 3.0156 3.5156z"/>
  </symbol>
  <symbol id="m" overflow="visible">
   <path d="m28.969-15.219v15.219h-8.0312v-11.656c0-2.1562-0.046875-3.6406-0.14062-4.4531-0.09375-0.82031-0.26172-1.4258-0.5-1.8125-0.3125-0.51953-0.74219-0.92578-1.2812-1.2188-0.53125-0.28906-1.1406-0.4375-1.8281-0.4375-1.668 0-2.9805 0.64844-3.9375 1.9375-0.94922 1.2812-1.4219 3.0625-1.4219 5.3438v12.297h-7.9844v-25h7.9844v3.6562c1.207-1.457 2.4883-2.5312 3.8438-3.2188 1.3516-0.69531 2.8477-1.0469 4.4844-1.0469 2.8828 0 5.0703 0.88672 6.5625 2.6562 1.5 1.7734 2.25 4.3516 2.25 7.7344z"/>
  </symbol>
  <symbol id="l" overflow="visible">
   <path d="m23.375-24.219v6.0625c-1.7109-0.70703-3.3594-1.2383-4.9531-1.5938-1.5938-0.36328-3.1016-0.54688-4.5156-0.54688-1.5234 0-2.6523 0.19531-3.3906 0.57812-0.73047 0.375-1.0938 0.96094-1.0938 1.75 0 0.63672 0.27344 1.125 0.82812 1.4688 0.5625 0.34375 1.5664 0.60156 3.0156 0.76562l1.4062 0.20312c4.0938 0.52344 6.8438 1.375 8.25 2.5625 1.4141 1.1875 2.125 3.0586 2.125 5.6094 0 2.6562-0.98438 4.6562-2.9531 6-1.9609 1.3359-4.8867 2-8.7812 2-1.6562 0-3.3711-0.13281-5.1406-0.39062-1.7617-0.25781-3.5703-0.64844-5.4219-1.1719v-6.0625c1.5938 0.77344 3.2227 1.3516 4.8906 1.7344 1.6758 0.38672 3.3789 0.57812 5.1094 0.57812 1.5625 0 2.7344-0.21094 3.5156-0.64062 0.78906-0.42578 1.1875-1.0664 1.1875-1.9219 0-0.70703-0.27344-1.2383-0.8125-1.5938-0.54297-0.35156-1.625-0.625-3.25-0.8125l-1.4062-0.1875c-3.5547-0.4375-6.0469-1.2578-7.4844-2.4688-1.4297-1.207-2.1406-3.0391-2.1406-5.5 0-2.6445 0.90625-4.6094 2.7188-5.8906 1.8203-1.2812 4.6094-1.9219 8.3594-1.9219 1.4766 0 3.0234 0.11719 4.6406 0.34375 1.625 0.21875 3.3906 0.57031 5.2969 1.0469z"/>
  </symbol>
  <symbol id="d" overflow="visible">
   <path d="m28.969-15.219v15.219h-8.0312v-11.609c0-2.1875-0.046875-3.6875-0.14062-4.5-0.09375-0.82031-0.26172-1.4258-0.5-1.8125-0.3125-0.51953-0.74219-0.92578-1.2812-1.2188-0.53125-0.28906-1.1406-0.4375-1.8281-0.4375-1.668 0-2.9805 0.64844-3.9375 1.9375-0.94922 1.2812-1.4219 3.0625-1.4219 5.3438v12.297h-7.9844v-34.734h7.9844v13.391c1.207-1.457 2.4883-2.5312 3.8438-3.2188 1.3516-0.69531 2.8477-1.0469 4.4844-1.0469 2.8828 0 5.0703 0.88672 6.5625 2.6562 1.5 1.7734 2.25 4.3516 2.25 7.7344z"/>
  </symbol>
  <symbol id="k" overflow="visible">
   <path d="m3.8438-25h7.9844v25h-7.9844zm0-9.7344h7.9844v6.5156h-7.9844z"/>
  </symbol>
  <symbol id="j" overflow="visible">
   <path d="m3.8438-34.734h7.9844v18.906l9.2031-9.1719h9.2812l-12.203 11.469 13.172 13.531h-9.6875l-9.7656-10.422v10.422h-7.9844z"/>
  </symbol>
 </defs>
 <g>
  <path fill = "rgb(39, 179, 106)" d="m470 40c0-10.609 4.2148-20.781 11.715-28.285 7.5039-7.5 17.676-11.715 28.285-11.715h80c10.609 0 20.781 4.2148 28.285 11.715 7.5 7.5039 11.715 17.676 11.715 28.285v480h20.004c5.3789-0.11328 10.578 1.9414 14.422 5.7031 3.8438 3.7656 6.0117 8.918 6.0117 14.297s-2.168 10.531-6.0117 14.297c-3.8438 3.7617-9.043 5.8164-14.422 5.7031h-600c-5.3789 0.11328-10.574-1.9414-14.422-5.7031-3.8438-3.7656-6.0078-8.918-6.0078-14.297s2.1641-10.531 6.0078-14.297c3.8477-3.7617 9.043-5.8164 14.422-5.7031h19.996v-120c0-10.609 4.2148-20.781 11.715-28.285 7.5039-7.5 17.676-11.715 28.285-11.715h80c10.609 0 20.781 4.2148 28.285 11.715 7.5 7.5039 11.715 17.676 11.715 28.285v120h40v-280c0-10.609 4.2148-20.781 11.715-28.285 7.5039-7.5 17.676-11.715 28.285-11.715h80c10.609 0 20.781 4.2148 28.285 11.715 7.5 7.5039 11.715 17.676 11.715 28.285v280h40z" fill-rule="evenodd"/>
  
 </g>
</svg>
