<?xml version="1.0" encoding="UTF-8"?>
<svg width="60px" height="60px" version="1.1" viewBox="0 0 700 700" xmlns="http://www.w3.org/2000/svg">
 <g>
  <path fill = "#fe9c24" d="m553.77 450.39c-94.281-110.39-56.328-221.57-56.328-253.98 0-76.027-57.344-138.5-131.07-147.08v-16.637c0-9.0977-7.3672-16.469-16.469-16.469-9.1055 0-16.469 7.375-16.469 16.469v16.469c-87.461 8.9766-146.89 94.23-129.49 176.4 0 2.5898 29.234 121.02-57.812 224.66-9.0586 10.707-1.4805 27.012 12.52 27.012 40.742-0.082031 368.04 0.15625 382.78 0.16406 13.996 0 21.57-16.469 12.348-27.012z"/>
  <path fill = "#fe9c24" d="m300.45 494.2c0 27.391 22.184 49.574 49.574 49.574s49.574-22.184 49.574-49.574v-0.37109l-99.148-0.125z"/>
 </g>
</svg>
