<?xml version="1.0" encoding="UTF-8"?>
<svg width="105px" height="105px" version="1.1" viewBox="0 0 700 700" xmlns="http://www.w3.org/2000/svg">
 <g>
  <path fill = "rgb(229, 47, 55)" d="m574 112c-7-7-17.5-10.5-24.5-3.5s-10.5 17.5-3.5 24.5c31.5 42 49 91 49 147 0 136.5-108.5 245-245 245s-245-108.5-245-245 108.5-245 245-245c56 0 105 17.5 147 49 7 7 17.5 3.5 24.5-3.5s3.5-17.5-3.5-24.5c-49-35-105-56-168-56-154 0-280 126-280 280s126 280 280 280 280-126 280-280c0-63-21-119-56-168z"/>
  <path fill = "rgb(229, 47, 55)" d="m255.5 143.5c-7 3.5-10.5 7-10.5 14v245c0 7 3.5 10.5 10.5 14 0 3.5 3.5 3.5 7 3.5s7 0 10.5-3.5l210-122.5c3.5-3.5 7-7 7-14s-3.5-10.5-7-14l-210-122.5c-7-3.5-14-3.5-17.5 0zm24.5 45.5 157.5 91-157.5 91z"/>
 </g>
</svg>
