<?xml version="1.0" encoding="UTF-8"?>
<svg width="20px" height="20px" version="1.1" viewBox="0 0 700 700" xmlns="http://www.w3.org/2000/svg" xmlns:xlink="http://www.w3.org/1999/xlink">
 <defs>
  <symbol id="u" overflow="visible">
   <path d="m5.0625-0.29688c-0.26172 0.13672-0.53906 0.23438-0.82812 0.29688-0.28125 0.070312-0.57422 0.10938-0.875 0.10938-0.91797 0-1.6484-0.25391-2.1875-0.76562-0.53125-0.51953-0.79688-1.2188-0.79688-2.0938s0.26562-1.5664 0.79688-2.0781c0.53906-0.50781 1.2695-0.76562 2.1875-0.76562 0.30078 0 0.59375 0.039062 0.875 0.10938 0.28906 0.0625 0.56641 0.16406 0.82812 0.29688v1.1406c-0.27344-0.1875-0.53906-0.32031-0.79688-0.40625-0.25-0.082031-0.51562-0.125-0.79688-0.125-0.5 0-0.89844 0.16797-1.1875 0.5-0.29297 0.32422-0.4375 0.76562-0.4375 1.3281 0 0.57422 0.14453 1.0234 0.4375 1.3438 0.28906 0.32422 0.6875 0.48438 1.1875 0.48438 0.28125 0 0.54688-0.039063 0.79688-0.125 0.25781-0.082031 0.52344-0.21094 0.79688-0.39062z"/>
  </symbol>
  <symbol id="c" overflow="visible">
   <path d="m3.7031-3c-0.11719-0.050781-0.23047-0.085938-0.34375-0.10938-0.11719-0.03125-0.23047-0.046875-0.34375-0.046875-0.34375 0-0.60938 0.10938-0.79688 0.32812-0.17969 0.21094-0.26562 0.51562-0.26562 0.92188v1.9062h-1.3125v-4.125h1.3125v0.67188c0.16406-0.26953 0.35938-0.46875 0.57812-0.59375s0.48438-0.1875 0.79688-0.1875c0.039063 0 0.085937 0.007813 0.14062 0.015625 0.050781 0 0.12891 0.007812 0.23438 0.015625z"/>
  </symbol>
  <symbol id="a" overflow="visible">
   <path d="m4.75-2.0781v0.375h-3.0781c0.03125 0.3125 0.14062 0.54688 0.32812 0.70312 0.19531 0.15625 0.46875 0.23438 0.8125 0.23438 0.26953 0 0.55078-0.039063 0.84375-0.125 0.28906-0.082031 0.59375-0.20703 0.90625-0.375v1.0156c-0.3125 0.11719-0.625 0.20312-0.9375 0.26562s-0.625 0.09375-0.9375 0.09375c-0.75 0-1.3359-0.1875-1.75-0.5625-0.40625-0.38281-0.60938-0.92188-0.60938-1.6094 0-0.66406 0.20312-1.1914 0.60938-1.5781 0.40625-0.39453 0.96094-0.59375 1.6719-0.59375 0.64453 0 1.1602 0.19922 1.5469 0.59375 0.39453 0.38672 0.59375 0.90625 0.59375 1.5625zm-1.3594-0.4375c0-0.25-0.074219-0.44531-0.21875-0.59375-0.14844-0.15625-0.33594-0.23438-0.5625-0.23438-0.26172 0-0.46875 0.074219-0.625 0.21875-0.15625 0.13672-0.25781 0.33984-0.29688 0.60938z"/>
  </symbol>
  <symbol id="e" overflow="visible">
   <path d="m2.4844-1.8594c-0.27344 0-0.48047 0.046875-0.625 0.14062-0.13672 0.09375-0.20312 0.23438-0.20312 0.42188 0 0.16797 0.050781 0.29688 0.15625 0.39062 0.11328 0.09375 0.26953 0.14062 0.46875 0.14062 0.25 0 0.45703-0.085937 0.625-0.26562 0.17578-0.17578 0.26562-0.39844 0.26562-0.67188v-0.15625zm2.0156-0.5v2.3594h-1.3281v-0.60938c-0.17969 0.25-0.38281 0.43359-0.60938 0.54688-0.21875 0.11328-0.48438 0.17188-0.79688 0.17188-0.42969 0-0.77734-0.125-1.0469-0.375-0.26172-0.25-0.39062-0.57031-0.39062-0.96875 0-0.48828 0.16406-0.84375 0.5-1.0625 0.33203-0.22656 0.85156-0.34375 1.5625-0.34375h0.78125v-0.10938c0-0.20703-0.085937-0.35938-0.25-0.45312-0.16797-0.09375-0.42188-0.14062-0.76562-0.14062-0.28125 0-0.54688 0.027344-0.79688 0.078125-0.24219 0.054687-0.46484 0.13672-0.67188 0.25v-1c0.28125-0.070313 0.5625-0.125 0.84375-0.15625 0.28906-0.039063 0.57812-0.0625 0.85938-0.0625 0.75 0 1.2852 0.15234 1.6094 0.45312 0.33203 0.29297 0.5 0.76562 0.5 1.4219z"/>
  </symbol>
  <symbol id="b" overflow="visible">
   <path d="m2.0781-5.2969v1.1719h1.3594v0.9375h-1.3594v1.75c0 0.19922 0.035156 0.33594 0.10938 0.40625 0.070312 0.0625 0.22266 0.09375 0.45312 0.09375h0.67188v0.9375h-1.125c-0.52344 0-0.89062-0.10938-1.1094-0.32812s-0.32812-0.58594-0.32812-1.1094v-1.75h-0.65625v-0.9375h0.65625v-1.1719z"/>
  </symbol>
  <symbol id="l" overflow="visible">
   <path d="m3.4375-3.5156v-2.2188h1.3281v5.7344h-1.3281v-0.59375c-0.17969 0.24219-0.375 0.41797-0.59375 0.53125-0.21875 0.11328-0.47656 0.17188-0.76562 0.17188-0.51172 0-0.92969-0.20312-1.25-0.60938-0.32422-0.40625-0.48438-0.92578-0.48438-1.5625 0-0.63281 0.16016-1.1562 0.48438-1.5625 0.32031-0.40625 0.73828-0.60938 1.25-0.60938 0.28906 0 0.54688 0.058594 0.76562 0.17188 0.21875 0.11719 0.41406 0.29688 0.59375 0.54688zm-0.85938 2.6719c0.28125 0 0.49219-0.10156 0.64062-0.3125 0.14453-0.20703 0.21875-0.50781 0.21875-0.90625 0-0.39453-0.074219-0.69141-0.21875-0.89062-0.14844-0.20703-0.35938-0.3125-0.64062-0.3125s-0.5 0.10547-0.65625 0.3125c-0.14844 0.19922-0.21875 0.49609-0.21875 0.89062 0 0.39844 0.070313 0.69922 0.21875 0.90625 0.15625 0.21094 0.375 0.3125 0.65625 0.3125z"/>
  </symbol>
  <symbol id="k" overflow="visible">
   <path d="m2.8281-0.84375c0.28125 0 0.49219-0.10156 0.64062-0.3125 0.15625-0.20703 0.23438-0.50781 0.23438-0.90625 0-0.39453-0.078125-0.69141-0.23438-0.89062-0.14844-0.20703-0.35938-0.3125-0.64062-0.3125s-0.5 0.10547-0.65625 0.3125c-0.14844 0.21094-0.21875 0.50781-0.21875 0.89062 0 0.39844 0.070313 0.69922 0.21875 0.90625 0.15625 0.21094 0.375 0.3125 0.65625 0.3125zm-0.875-2.6719c0.17578-0.25 0.375-0.42969 0.59375-0.54688 0.22656-0.11328 0.48438-0.17188 0.76562-0.17188 0.50781 0 0.92578 0.20312 1.25 0.60938 0.33203 0.40625 0.5 0.92969 0.5 1.5625 0 0.63672-0.16797 1.1562-0.5 1.5625-0.32422 0.40625-0.74219 0.60938-1.25 0.60938-0.28125 0-0.53906-0.058594-0.76562-0.17188-0.21875-0.11328-0.41797-0.28906-0.59375-0.53125v0.59375h-1.3125v-5.7344h1.3125z"/>
  </symbol>
  <symbol id="j" overflow="visible">
   <path d="m0.09375-4.125h1.3125l1.1094 2.7969 0.95312-2.7969h1.3125l-1.7344 4.5156c-0.17969 0.45703-0.38281 0.77344-0.60938 0.95312-0.23047 0.1875-0.53906 0.28125-0.92188 0.28125h-0.76562v-0.85938h0.42188c0.21875 0 0.37891-0.039063 0.48438-0.10938 0.10156-0.074219 0.17969-0.20312 0.23438-0.39062l0.046875-0.10938z"/>
  </symbol>
  <symbol id="i" overflow="visible">
   <path d="m4.0312-1h-2.2188l-0.34375 1h-1.4375l2.0469-5.5h1.6875l2.0312 5.5h-1.4219zm-1.8594-1.0156h1.5l-0.75-2.2031z"/>
  </symbol>
  <symbol id="h" overflow="visible">
   <path d="m4.7812-2.5156v2.5156h-1.3281v-1.9219c0-0.35156-0.011719-0.59766-0.03125-0.73438-0.011719-0.13281-0.039063-0.23438-0.078125-0.29688-0.054688-0.09375-0.125-0.16016-0.21875-0.20312-0.085938-0.050781-0.17969-0.078125-0.28125-0.078125-0.28125 0-0.5 0.10938-0.65625 0.32812-0.15625 0.21094-0.23438 0.5-0.23438 0.875v2.0312h-1.3125v-4.125h1.3125v0.60938c0.19531-0.25 0.40625-0.42969 0.625-0.54688 0.22656-0.11328 0.47656-0.17188 0.75-0.17188 0.47656 0 0.83594 0.15234 1.0781 0.45312 0.25 0.29297 0.375 0.71484 0.375 1.2656z"/>
  </symbol>
  <symbol id="t" overflow="visible">
   <path d="m3.8594-4v1c-0.28125-0.11328-0.55859-0.19531-0.82812-0.25-0.26172-0.0625-0.50781-0.09375-0.73438-0.09375-0.25 0-0.4375 0.03125-0.5625 0.09375-0.11719 0.0625-0.17188 0.15625-0.17188 0.28125 0 0.10547 0.039062 0.1875 0.125 0.25 0.09375 0.054688 0.25781 0.09375 0.5 0.125l0.23438 0.03125c0.67578 0.085938 1.1289 0.22656 1.3594 0.42188 0.23828 0.19922 0.35938 0.50781 0.35938 0.92188 0 0.4375-0.16797 0.77344-0.5 1-0.32422 0.21875-0.80469 0.32812-1.4375 0.32812-0.28125 0-0.57031-0.023438-0.85938-0.0625-0.29297-0.042969-0.58984-0.10938-0.89062-0.20312v-1c0.25781 0.125 0.52344 0.22656 0.79688 0.29688 0.28125 0.0625 0.56641 0.09375 0.85938 0.09375 0.25 0 0.4375-0.035156 0.5625-0.10938 0.13281-0.070312 0.20312-0.17578 0.20312-0.3125 0-0.125-0.046875-0.21094-0.14062-0.26562-0.085937-0.0625-0.25781-0.10938-0.51562-0.14062l-0.23438-0.03125c-0.59375-0.070312-1.0117-0.20703-1.25-0.40625-0.23047-0.19531-0.34375-0.5-0.34375-0.90625 0-0.4375 0.14844-0.75781 0.45312-0.96875 0.30078-0.21875 0.75781-0.32812 1.375-0.32812 0.23828 0 0.49219 0.023437 0.76562 0.0625 0.26953 0.042969 0.5625 0.10156 0.875 0.17188z"/>
  </symbol>
  <symbol id="g" overflow="visible">
   <path d="m3.9688-4v1.0781c-0.17969-0.125-0.35938-0.21094-0.54688-0.26562-0.17969-0.0625-0.36719-0.09375-0.5625-0.09375-0.36719 0-0.65234 0.10938-0.85938 0.32812-0.19922 0.21094-0.29688 0.50781-0.29688 0.89062 0 0.38672 0.097656 0.6875 0.29688 0.90625 0.20703 0.21094 0.49219 0.3125 0.85938 0.3125 0.20703 0 0.40625-0.023438 0.59375-0.078125 0.1875-0.0625 0.35938-0.15625 0.51562-0.28125v1.0781c-0.21094 0.085938-0.42188 0.14062-0.64062 0.17188-0.21094 0.039062-0.41797 0.0625-0.625 0.0625-0.75 0-1.3359-0.19141-1.75-0.57812-0.41797-0.38281-0.625-0.91406-0.625-1.5938 0-0.67578 0.20703-1.207 0.625-1.5938 0.41406-0.38281 1-0.57812 1.75-0.57812 0.21875 0 0.42969 0.023437 0.64062 0.0625 0.20703 0.042969 0.41406 0.10156 0.625 0.17188z"/>
  </symbol>
  <symbol id="s" overflow="visible">
   <path d="m0.64062-5.7344h1.3125v3.125l1.5156-1.5156h1.5312l-2.0156 1.8906 2.1719 2.2344h-1.5938l-1.6094-1.7188v1.7188h-1.3125z"/>
  </symbol>
  <symbol id="f" overflow="visible">
   <path d="m4.7812-2.5156v2.5156h-1.3281v-1.9219c0-0.35156-0.011719-0.59766-0.03125-0.73438-0.011719-0.13281-0.039063-0.23438-0.078125-0.29688-0.054688-0.09375-0.125-0.16016-0.21875-0.20312-0.085938-0.050781-0.17969-0.078125-0.28125-0.078125-0.28125 0-0.5 0.10938-0.65625 0.32812-0.15625 0.21094-0.23438 0.5-0.23438 0.875v2.0312h-1.3125v-5.7344h1.3125v2.2188c0.19531-0.25 0.40625-0.42969 0.625-0.54688 0.22656-0.11328 0.47656-0.17188 0.75-0.17188 0.47656 0 0.83594 0.15234 1.0781 0.45312 0.25 0.29297 0.375 0.71484 0.375 1.2656z"/>
  </symbol>
  <symbol id="r" overflow="visible">
   <path d="m3.3438-5.7344v0.85938h-0.71875c-0.1875 0-0.32031 0.039062-0.39062 0.10938-0.074219 0.0625-0.10938 0.17969-0.10938 0.34375v0.29688h1.125v0.9375h-1.125v3.1875h-1.3281v-3.1875h-0.65625v-0.9375h0.65625v-0.29688c0-0.44531 0.125-0.77344 0.375-0.98438 0.25-0.21875 0.64062-0.32812 1.1719-0.32812z"/>
  </symbol>
  <symbol id="d" overflow="visible">
   <path d="m2.5938-3.2812c-0.29297 0-0.51562 0.10547-0.67188 0.3125-0.14844 0.21094-0.21875 0.51172-0.21875 0.90625 0 0.39844 0.070313 0.69922 0.21875 0.90625 0.15625 0.21094 0.37891 0.3125 0.67188 0.3125 0.28906 0 0.50781-0.10156 0.65625-0.3125 0.15625-0.20703 0.23438-0.50781 0.23438-0.90625 0-0.39453-0.078125-0.69531-0.23438-0.90625-0.14844-0.20703-0.36719-0.3125-0.65625-0.3125zm0-0.95312c0.70703 0 1.2578 0.19531 1.6562 0.57812 0.40625 0.38672 0.60938 0.91797 0.60938 1.5938 0 0.67969-0.20312 1.2109-0.60938 1.5938-0.39844 0.38672-0.94922 0.57812-1.6562 0.57812-0.71094 0-1.2656-0.19141-1.6719-0.57812-0.39844-0.38281-0.59375-0.91406-0.59375-1.5938 0-0.67578 0.19531-1.207 0.59375-1.5938 0.40625-0.38281 0.96094-0.57812 1.6719-0.57812z"/>
  </symbol>
  <symbol id="q" overflow="visible">
   <path d="m4.4531-3.4375c0.16406-0.25781 0.36328-0.45703 0.59375-0.59375 0.23828-0.13281 0.49219-0.20312 0.76562-0.20312 0.46875 0 0.82812 0.15234 1.0781 0.45312 0.25 0.29297 0.375 0.71484 0.375 1.2656v2.5156h-1.3281v-2.1562-0.09375c0.007812-0.03125 0.015625-0.082031 0.015625-0.15625 0-0.28906-0.046875-0.5-0.14062-0.625-0.085938-0.13281-0.21875-0.20312-0.40625-0.20312-0.25 0-0.44531 0.10547-0.57812 0.3125-0.13672 0.21094-0.21094 0.50781-0.21875 0.89062v2.0312h-1.3281v-2.1562c0-0.45703-0.042969-0.75-0.125-0.875-0.074219-0.13281-0.21094-0.20312-0.40625-0.20312-0.26172 0-0.46094 0.10547-0.59375 0.3125-0.13672 0.21094-0.20312 0.50781-0.20312 0.89062v2.0312h-1.3281v-4.125h1.3281v0.60938c0.16406-0.23828 0.35156-0.41406 0.5625-0.53125 0.20703-0.125 0.4375-0.1875 0.6875-0.1875 0.28906 0 0.54688 0.074219 0.76562 0.21875 0.21875 0.13672 0.37891 0.32812 0.48438 0.57812z"/>
  </symbol>
  <symbol id="p" overflow="visible">
   <path d="m0.6875-5.5h1.5938l2 3.7656v-3.7656h1.3438v5.5h-1.5938l-2-3.7812v3.7812h-1.3438z"/>
  </symbol>
  <symbol id="o" overflow="visible">
   <path d="m0.59375-1.6094v-2.5156h1.3281v0.40625c0 0.23047-0.007813 0.51562-0.015625 0.85938v0.65625c0 0.33594 0.003906 0.57422 0.015625 0.71875 0.019531 0.14844 0.050781 0.25781 0.09375 0.32812 0.0625 0.085938 0.13281 0.15234 0.21875 0.20312 0.082031 0.042969 0.17969 0.0625 0.29688 0.0625 0.28125 0 0.5-0.10156 0.65625-0.3125 0.15625-0.21875 0.23438-0.51562 0.23438-0.89062v-2.0312h1.3125v4.125h-1.3125v-0.59375c-0.19922 0.24219-0.41406 0.41797-0.64062 0.53125-0.21875 0.11328-0.46484 0.17188-0.73438 0.17188-0.46875 0-0.82812-0.14453-1.0781-0.4375-0.25-0.28906-0.375-0.71875-0.375-1.2812z"/>
  </symbol>
  <symbol id="n" overflow="visible">
   <path d="m0.6875-5.5h2.3594c0.69531 0 1.2344 0.15625 1.6094 0.46875s0.5625 0.75781 0.5625 1.3281c0 0.57422-0.1875 1.0156-0.5625 1.3281s-0.91406 0.46875-1.6094 0.46875h-0.9375v1.9062h-1.4219zm1.4219 1.0312v1.5312h0.78125c0.28125 0 0.49219-0.066406 0.64062-0.20312 0.15625-0.13281 0.23438-0.32031 0.23438-0.5625 0-0.25-0.078125-0.4375-0.23438-0.5625-0.14844-0.13281-0.35938-0.20312-0.64062-0.20312z"/>
  </symbol>
  <symbol id="m" overflow="visible">
   <path d="m0.64062-4.125h1.3125v4.0469c0 0.55078-0.13672 0.97266-0.40625 1.2656-0.26172 0.28906-0.64062 0.4375-1.1406 0.4375h-0.65625v-0.85938h0.23438c0.25 0 0.42188-0.058594 0.51562-0.17188 0.09375-0.11719 0.14062-0.33984 0.14062-0.67188zm0-1.6094h1.3125v1.0781h-1.3125z"/>
  </symbol>
 </defs>
 <g>
  <path fill = "rgb(13, 110, 253)" d="m350.75 0c-155.47 0-280.75 125.28-280.75 280.75 0 153.96 125.28 279.25 280.75 279.25 153.96 0 279.25-125.28 279.25-279.25 0-155.47-125.28-280.75-279.25-280.75zm160 215.85-196.23 196.23c-12.074 10.566-28.68 10.566-40.754 0l-83.02-84.527c-27.168-25.66 13.586-64.906 39.246-39.246l64.906 64.906 175.09-176.61c27.168-25.66 66.414 13.586 40.754 39.246z" fill-rule="evenodd"/>
  <use x="70" y="582.640625" xlink:href="#u"/>
  <use x="75.539062" y="582.640625" xlink:href="#c"/>
  <use x="79.261719" y="582.640625" xlink:href="#a"/>
  <use x="84.378906" y="582.640625" xlink:href="#e"/>
  <use x="89.472656" y="582.640625" xlink:href="#b"/>
  <use x="93.078125" y="582.640625" xlink:href="#a"/>
  <use x="98.199219" y="582.640625" xlink:href="#l"/>
  <use x="106.230469" y="582.640625" xlink:href="#k"/>
  <use x="111.632812" y="582.640625" xlink:href="#j"/>
  <use x="119.179688" y="582.640625" xlink:href="#i"/>
  <use x="125.019531" y="582.640625" xlink:href="#h"/>
  <use x="130.390625" y="582.640625" xlink:href="#a"/>
  <use x="135.511719" y="582.640625" xlink:href="#t"/>
  <use x="140.003906" y="582.640625" xlink:href="#g"/>
  <use x="144.476562" y="582.640625" xlink:href="#s"/>
  <use x="149.496094" y="582.640625" xlink:href="#f"/>
  <use x="154.867188" y="582.640625" xlink:href="#e"/>
  <use x="70" y="590.1875" xlink:href="#r"/>
  <use x="73.285156" y="590.1875" xlink:href="#c"/>
  <use x="77.003906" y="590.1875" xlink:href="#d"/>
  <use x="82.191406" y="590.1875" xlink:href="#q"/>
  <use x="92.683594" y="590.1875" xlink:href="#b"/>
  <use x="96.289062" y="590.1875" xlink:href="#f"/>
  <use x="101.664062" y="590.1875" xlink:href="#a"/>
  <use x="109.410156" y="590.1875" xlink:href="#p"/>
  <use x="115.726562" y="590.1875" xlink:href="#d"/>
  <use x="120.910156" y="590.1875" xlink:href="#o"/>
  <use x="126.28125" y="590.1875" xlink:href="#h"/>
  <use x="134.285156" y="590.1875" xlink:href="#n"/>
  <use x="139.816406" y="590.1875" xlink:href="#c"/>
  <use x="143.535156" y="590.1875" xlink:href="#d"/>
  <use x="148.722656" y="590.1875" xlink:href="#m"/>
  <use x="151.308594" y="590.1875" xlink:href="#a"/>
  <use x="156.425781" y="590.1875" xlink:href="#g"/>
  <use x="160.902344" y="590.1875" xlink:href="#b"/>
 </g>
</svg>
