<?xml version="1.0" encoding="UTF-8"?>
<svg width="60px" height="60px" version="1.1" viewBox="0 0 700 700" xmlns="http://www.w3.org/2000/svg">
 <g>
  <path fill = "#1e90ff" d="m602 140h-78.398c14-14 22.398-33.602 22.398-56 0-47.602-36.398-84-84-84-28 0-78.398 25.199-112 58.801-33.602-33.602-84-58.801-112-58.801-47.602 0-84 36.398-84 84 0 22.398 8.3984 42 22.398 56h-78.398c-16.801 0-28 11.199-28 28v78.398c0 2.8008 2.8008 5.6016 5.6016 5.6016h235.2c5.5977 0 11.199-5.6016 11.199-11.199v-89.602c0-5.5977 5.6016-11.199 11.199-11.199h33.602c5.5977 0 11.199 5.6016 11.199 11.199v89.602c0 5.5977 5.6016 11.199 11.199 11.199h235.2c2.8008 0 5.6016-2.8008 5.6016-5.6016v-78.398c0-16.801-11.199-28-28-28zm-364-28c-16.801 0-28-11.199-28-28s11.199-28 28-28 67.199 33.602 81.199 50.398c-8.3984 2.8008-81.199 5.6016-81.199 5.6016zm224 0s-72.801-2.8008-81.199-5.6016c16.801-19.598 64.398-50.398 81.199-50.398s28 11.199 28 28-11.199 28-28 28z"/>
  <path fill = "#1e90ff" d="m310.8 308h-207.2c-2.8008 0-5.6016 2.8008-5.6016 5.6016v218.4c0 16.801 11.199 28 28 28h184.8c5.5977 0 11.199-5.6016 11.199-11.199v-229.6c0-5.5977-5.6016-11.199-11.199-11.199z"/>
  <path fill = "#1e90ff" d="m596.4 308h-207.2c-5.6016 0-11.199 5.6016-11.199 11.199v229.6c0 5.6016 5.6016 11.199 11.199 11.199h184.8c16.801 0 28-11.199 28-28v-218.4c0-2.8008-2.8008-5.6016-5.6016-5.6016z"/>
 </g>
</svg>
