<?xml version="1.0" encoding="UTF-8"?>
<svg width="30px" height="30px" version="1.1" viewBox="0 0 700 700" xmlns="http://www.w3.org/2000/svg">
 <g>
  <path fill = "rgb(13, 110, 253)" d="m210 385h-78.75c-11.602 0-22.73-4.6094-30.938-12.812-8.2031-8.207-12.812-19.336-12.812-30.938v-280c0-11.602 4.6094-22.73 12.812-30.938 8.207-8.2031 19.336-12.812 30.938-12.812h280c11.602 0 22.73 4.6094 30.938 12.812 8.2031 8.207 12.812 19.336 12.812 30.938v78.75c0 4.832-3.918 8.75-8.75 8.75s-8.75-3.918-8.75-8.75v-78.75c0-6.9609-2.7656-13.641-7.6875-18.562s-11.602-7.6875-18.562-7.6875h-280c-6.9609 0-13.641 2.7656-18.562 7.6875s-7.6875 11.602-7.6875 18.562v280c0 6.9609 2.7656 13.641 7.6875 18.562s11.602 7.6875 18.562 7.6875h78.75c4.832 0 8.75 3.918 8.75 8.75s-3.918 8.75-8.75 8.75z"/>
  <path fill = "rgb(13, 110, 253)" d="m446.25 183.75h-148.75c-11.602 0-22.73 4.6094-30.938 12.812-8.2031 8.207-12.812 19.336-12.812 30.938v148.75c0 2.3203 0.92188 4.5469 2.5625 6.1875s3.8672 2.5625 6.1875 2.5625h148.75c11.602 0 22.73-4.6094 30.938-12.812 8.2031-8.207 12.812-19.336 12.812-30.938v-148.75c0-2.3203-0.92188-4.5469-2.5625-6.1875s-3.8672-2.5625-6.1875-2.5625z"/>
  <path fill = "rgb(13, 110, 253)" d="m577.5 551.25h-280c-11.602 0-22.73-4.6094-30.938-12.812-8.2031-8.207-12.812-19.336-12.812-30.938v-87.5c0-4.832 3.918-8.75 8.75-8.75s8.75 3.918 8.75 8.75v87.5c0 6.9609 2.7656 13.641 7.6875 18.562s11.602 7.6875 18.562 7.6875h280c6.9609 0 13.641-2.7656 18.562-7.6875s7.6875-11.602 7.6875-18.562v-280c0-6.9609-2.7656-13.641-7.6875-18.562s-11.602-7.6875-18.562-7.6875h-87.5c-4.832 0-8.75-3.918-8.75-8.75s3.918-8.75 8.75-8.75h87.5c11.602 0 22.73 4.6094 30.938 12.812 8.2031 8.207 12.812 19.336 12.812 30.938v280c0 11.602-4.6094 22.73-12.812 30.938-8.207 8.2031-19.336 12.812-30.938 12.812z"/>
 </g>
</svg>
