<?xml version="1.0" encoding="UTF-8"?>
<svg width="32px" height="32px" version="1.1" viewBox="0 0 700 700" xmlns="http://www.w3.org/2000/svg" xmlns:xlink="http://www.w3.org/1999/xlink">
 <defs>
  <symbol id="u" overflow="visible">
   <path d="m14.656-0.875c-0.76172 0.39844-1.5547 0.69531-2.375 0.89062-0.8125 0.19531-1.6641 0.29688-2.5469 0.29688-2.6562 0-4.7617-0.73828-6.3125-2.2188-1.5547-1.4883-2.3281-3.5039-2.3281-6.0469 0-2.5508 0.77344-4.5664 2.3281-6.0469 1.5508-1.4883 3.6562-2.2344 6.3125-2.2344 0.88281 0 1.7344 0.10156 2.5469 0.29688 0.82031 0.19922 1.6133 0.49609 2.375 0.89062v3.2969c-0.76172-0.51953-1.5117-0.89844-2.25-1.1406-0.74219-0.23828-1.5234-0.35938-2.3438-0.35938-1.4688 0-2.625 0.46875-3.4688 1.4062-0.83594 0.9375-1.25 2.2344-1.25 3.8906 0 1.6484 0.41406 2.9375 1.25 3.875 0.84375 0.9375 2 1.4062 3.4688 1.4062 0.82031 0 1.6016-0.11719 2.3438-0.35938 0.73828-0.23828 1.4883-0.61719 2.25-1.1406z"/>
  </symbol>
  <symbol id="d" overflow="visible">
   <path d="m10.719-8.7031c-0.33594-0.15625-0.66797-0.26953-1-0.34375-0.32422-0.082031-0.65625-0.125-1-0.125-0.98047 0-1.7344 0.32031-2.2656 0.95312-0.53125 0.625-0.79688 1.5273-0.79688 2.7031v5.5156h-3.8125v-11.969h3.8125v1.9688c0.48828-0.78125 1.0508-1.3477 1.6875-1.7031 0.64453-0.36328 1.4102-0.54688 2.2969-0.54688 0.13281 0 0.27344 0.007812 0.42188 0.015625 0.14453 0.011719 0.36328 0.03125 0.65625 0.0625z"/>
  </symbol>
  <symbol id="a" overflow="visible">
   <path d="m13.781-6.0156v1.0938h-8.9375c0.09375 0.89844 0.41406 1.5703 0.96875 2.0156 0.55078 0.44922 1.3281 0.67188 2.3281 0.67188 0.80078 0 1.625-0.11719 2.4688-0.35938 0.84375-0.23828 1.7109-0.59766 2.6094-1.0781v2.9531c-0.90625 0.33594-1.8125 0.58984-2.7188 0.76562s-1.8125 0.26562-2.7188 0.26562c-2.1562 0-3.8398-0.54688-5.0469-1.6406-1.1992-1.1016-1.7969-2.6484-1.7969-4.6406 0-1.9453 0.58594-3.4766 1.7656-4.5938 1.1758-1.125 2.8008-1.6875 4.875-1.6875 1.875 0 3.375 0.57031 4.5 1.7031 1.1328 1.125 1.7031 2.6367 1.7031 4.5312zm-3.9375-1.2656c0-0.72656-0.21484-1.3125-0.64062-1.75-0.41797-0.44531-0.96875-0.67188-1.6562-0.67188-0.74219 0-1.3438 0.21094-1.8125 0.625-0.46094 0.41797-0.74609 1.0156-0.85938 1.7969z"/>
  </symbol>
  <symbol id="g" overflow="visible">
   <path d="m7.2031-5.3906c-0.80469 0-1.4062 0.13672-1.8125 0.40625-0.39844 0.27344-0.59375 0.67188-0.59375 1.2031 0 0.48047 0.16016 0.85938 0.48438 1.1406 0.32031 0.27344 0.77344 0.40625 1.3594 0.40625 0.71875 0 1.3203-0.25391 1.8125-0.76562 0.48828-0.51953 0.73438-1.1719 0.73438-1.9531v-0.4375zm5.8438-1.4375v6.8281h-3.8594v-1.7656c-0.51172 0.71875-1.0898 1.2461-1.7344 1.5781-0.63672 0.33203-1.418 0.5-2.3438 0.5-1.2422 0-2.2461-0.35938-3.0156-1.0781-0.77344-0.72656-1.1562-1.6719-1.1562-2.8281 0-1.3945 0.47656-2.4219 1.4375-3.0781 0.96875-0.65625 2.4883-0.98438 4.5625-0.98438h2.25v-0.29688c0-0.60156-0.24219-1.0469-0.71875-1.3281-0.48047-0.28125-1.2266-0.42188-2.2344-0.42188-0.8125 0-1.5742 0.085937-2.2812 0.25-0.71094 0.15625-1.3672 0.40234-1.9688 0.73438v-2.9219c0.82031-0.19531 1.6445-0.34766 2.4688-0.45312 0.82031-0.10156 1.6484-0.15625 2.4844-0.15625 2.1562 0 3.7109 0.42969 4.6719 1.2812 0.95703 0.84375 1.4375 2.2266 1.4375 4.1406z"/>
  </symbol>
  <symbol id="b" overflow="visible">
   <path d="m6.0156-15.359v3.3906h3.9375v2.7344h-3.9375v5.0781c0 0.55469 0.10938 0.92969 0.32812 1.125 0.21875 0.19922 0.65625 0.29688 1.3125 0.29688h1.9688v2.7344h-3.2812c-1.5117 0-2.5859-0.3125-3.2188-0.9375-0.625-0.63281-0.9375-1.707-0.9375-3.2188v-5.0781h-1.9062v-2.7344h1.9062v-3.3906z"/>
  </symbol>
  <symbol id="i" overflow="visible">
   <path d="m9.9688-10.219v-6.4062h3.8594v16.625h-3.8594v-1.7344c-0.52344 0.71094-1.1016 1.2305-1.7344 1.5625-0.63672 0.32031-1.3711 0.48438-2.2031 0.48438-1.4688 0-2.6797-0.58203-3.625-1.75-0.94922-1.1758-1.4219-2.6875-1.4219-4.5312s0.47266-3.3477 1.4219-4.5156c0.94531-1.1758 2.1562-1.7656 3.625-1.7656 0.83203 0 1.5664 0.16797 2.2031 0.5 0.63281 0.32422 1.2109 0.83594 1.7344 1.5312zm-2.5156 7.75c0.82031 0 1.4453-0.29688 1.875-0.89062 0.42578-0.60156 0.64062-1.4727 0.64062-2.6094 0-1.1445-0.21484-2.0156-0.64062-2.6094-0.42969-0.59375-1.0547-0.89062-1.875-0.89062-0.8125 0-1.4336 0.29688-1.8594 0.89062-0.42969 0.59375-0.64062 1.4648-0.64062 2.6094 0 1.1367 0.21094 2.0078 0.64062 2.6094 0.42578 0.59375 1.0469 0.89062 1.8594 0.89062z"/>
  </symbol>
  <symbol id="c" overflow="visible">
   <path d="m8.2031-2.4688c0.82031 0 1.4453-0.29688 1.875-0.89062 0.42578-0.60156 0.64062-1.4727 0.64062-2.6094 0-1.1445-0.21484-2.0156-0.64062-2.6094-0.42969-0.59375-1.0547-0.89062-1.875-0.89062-0.82422 0-1.4531 0.30469-1.8906 0.90625-0.4375 0.59375-0.65625 1.4609-0.65625 2.5938 0 1.1367 0.21875 2.0078 0.65625 2.6094 0.4375 0.59375 1.0664 0.89062 1.8906 0.89062zm-2.5469-7.75c0.53125-0.69531 1.1133-1.207 1.75-1.5312 0.64453-0.33203 1.3828-0.5 2.2188-0.5 1.4688 0 2.6758 0.58984 3.625 1.7656 0.94531 1.168 1.4219 2.6719 1.4219 4.5156s-0.47656 3.3555-1.4219 4.5312c-0.94922 1.168-2.1562 1.75-3.625 1.75-0.83594 0-1.5742-0.16797-2.2188-0.5-0.63672-0.33203-1.2188-0.84766-1.75-1.5469v1.7344h-3.8125v-16.625h3.8125z"/>
  </symbol>
  <symbol id="f" overflow="visible">
   <path d="m0.26562-11.969h3.8281l3.2188 8.125 2.7344-8.125h3.8125l-5.0312 13.094c-0.5 1.332-1.0898 2.2656-1.7656 2.7969-0.66797 0.53125-1.5547 0.79688-2.6562 0.79688h-2.2188v-2.5h1.2031c0.64453 0 1.1133-0.10547 1.4062-0.3125 0.30078-0.21094 0.53125-0.57812 0.6875-1.1094l0.10938-0.34375z"/>
  </symbol>
  <symbol id="h" overflow="visible">
   <path d="m2.0156-15.953h4.1094v6.0781h6.0625v-6.0781h4.1094v15.953h-4.1094v-6.7656h-6.0625v6.7656h-4.1094z"/>
  </symbol>
  <symbol id="t" overflow="visible">
   <path d="m7.8438-8.875c0.86328 0 1.4844-0.16016 1.8594-0.48438 0.375-0.32031 0.5625-0.84766 0.5625-1.5781 0-0.72656-0.1875-1.25-0.5625-1.5625s-0.99609-0.46875-1.8594-0.46875h-1.7188v4.0938zm-1.7188 2.8438v6.0312h-4.1094v-15.953h6.2656c2.1016 0 3.6445 0.35547 4.625 1.0625 0.97656 0.71094 1.4688 1.8242 1.4688 3.3438 0 1.0547-0.25781 1.918-0.76562 2.5938-0.51172 0.67969-1.2773 1.1797-2.2969 1.5 0.5625 0.125 1.0625 0.41797 1.5 0.875 0.44531 0.44922 0.89844 1.1328 1.3594 2.0469l2.2344 4.5312h-4.375l-1.9531-3.9688c-0.38672-0.78906-0.78125-1.332-1.1875-1.625-0.40625-0.28906-0.94531-0.4375-1.6094-0.4375z"/>
  </symbol>
  <symbol id="s" overflow="visible">
   <path d="m1.8438-11.969h3.8125v11.969h-3.8125zm0-4.6562h3.8125v3.125h-3.8125z"/>
  </symbol>
  <symbol id="r" overflow="visible">
   <path d="m9.7031-16.625v2.5156h-2.1094c-0.54297 0-0.92188 0.10156-1.1406 0.29688-0.21094 0.19922-0.3125 0.53906-0.3125 1.0156v0.82812h3.2656v2.7344h-3.2656v9.2344h-3.8281v-9.2344h-1.8906v-2.7344h1.8906v-0.82812c0-1.3008 0.36328-2.2656 1.0938-2.8906 0.72656-0.625 1.8516-0.9375 3.375-0.9375z"/>
  </symbol>
  <symbol id="e" overflow="visible">
   <path d="m7.5312-9.5156c-0.84375 0-1.4922 0.30859-1.9375 0.92188-0.44922 0.60547-0.67188 1.4805-0.67188 2.625 0 1.1484 0.22266 2.0273 0.67188 2.6406 0.44531 0.60547 1.0938 0.90625 1.9375 0.90625 0.83203 0 1.4688-0.30078 1.9062-0.90625 0.44531-0.61328 0.67188-1.4922 0.67188-2.6406 0-1.1445-0.22656-2.0195-0.67188-2.625-0.4375-0.61328-1.0742-0.92188-1.9062-0.92188zm0-2.7344c2.0508 0 3.6562 0.55859 4.8125 1.6719 1.1641 1.1055 1.75 2.6406 1.75 4.6094s-0.58594 3.5117-1.75 4.625c-1.1562 1.1055-2.7617 1.6562-4.8125 1.6562-2.0625 0-3.6797-0.55078-4.8438-1.6562-1.168-1.1133-1.75-2.6562-1.75-4.625s0.58203-3.5039 1.75-4.6094c1.1641-1.1133 2.7812-1.6719 4.8438-1.6719z"/>
  </symbol>
  <symbol id="q" overflow="visible">
   <path d="m12.922-9.9688c0.48828-0.75 1.0625-1.3164 1.7188-1.7031 0.66406-0.38281 1.3984-0.57812 2.2031-0.57812 1.375 0 2.4219 0.42969 3.1406 1.2812 0.71875 0.84375 1.0781 2.0742 1.0781 3.6875v7.2812h-3.8438v-6.2344c0.007812-0.09375 0.015625-0.1875 0.015625-0.28125v-0.4375c0-0.84375-0.125-1.457-0.375-1.8438-0.25-0.38281-0.65234-0.57812-1.2031-0.57812-0.73047 0-1.293 0.30469-1.6875 0.90625-0.38672 0.59375-0.58984 1.4609-0.60938 2.5938v5.875h-3.8438v-6.2344c0-1.3203-0.11719-2.1758-0.34375-2.5625-0.23047-0.38281-0.63672-0.57812-1.2188-0.57812-0.73047 0-1.2969 0.30469-1.7031 0.90625-0.39844 0.60547-0.59375 1.4648-0.59375 2.5781v5.8906h-3.8438v-11.969h3.8438v1.75c0.46875-0.66406 1.0039-1.1719 1.6094-1.5156 0.61328-0.34375 1.2891-0.51562 2.0312-0.51562 0.82031 0 1.5508 0.19922 2.1875 0.59375 0.63281 0.39844 1.1133 0.96094 1.4375 1.6875z"/>
  </symbol>
  <symbol id="p" overflow="visible">
   <path d="m13.859-7.2812v7.2812h-3.8438v-5.5469c0-1.0508-0.027344-1.7695-0.078125-2.1562-0.042969-0.39453-0.12109-0.6875-0.23438-0.875-0.14844-0.25-0.35156-0.44141-0.60938-0.57812-0.25-0.14453-0.54297-0.21875-0.875-0.21875-0.79297 0-1.418 0.3125-1.875 0.9375-0.46094 0.61719-0.6875 1.4648-0.6875 2.5469v5.8906h-3.8125v-16.625h3.8125v6.4062c0.58203-0.69531 1.1953-1.207 1.8438-1.5312 0.64453-0.33203 1.3594-0.5 2.1406-0.5 1.3828 0 2.4297 0.42969 3.1406 1.2812 0.71875 0.84375 1.0781 2.0742 1.0781 3.6875z"/>
  </symbol>
  <symbol id="o" overflow="visible">
   <path d="m2.0156-15.953h4.5781l5.8125 10.938v-10.938h3.8906v15.953h-4.5938l-5.7969-10.938v10.938h-3.8906z"/>
  </symbol>
  <symbol id="n" overflow="visible">
   <path d="m1.7031-4.6562v-7.3125h3.8438v1.2031c0 0.64844-0.007813 1.4609-0.015625 2.4375v1.9688c0 0.96094 0.023438 1.6523 0.078125 2.0781 0.050781 0.41797 0.13281 0.72656 0.25 0.92188 0.15625 0.25 0.35938 0.44531 0.60938 0.57812 0.25781 0.13672 0.55078 0.20312 0.875 0.20312 0.80078 0 1.4258-0.30469 1.875-0.92188 0.45703-0.61328 0.6875-1.4688 0.6875-2.5625v-5.9062h3.8281v11.969h-3.8281v-1.7344c-0.57422 0.69922-1.1836 1.2148-1.8281 1.5469-0.64844 0.33203-1.3555 0.5-2.125 0.5-1.3867 0-2.4453-0.42188-3.1719-1.2656-0.71875-0.85156-1.0781-2.0859-1.0781-3.7031z"/>
  </symbol>
  <symbol id="m" overflow="visible">
   <path d="m13.859-7.2812v7.2812h-3.8438v-5.5781c0-1.0312-0.027344-1.7383-0.078125-2.125-0.042969-0.39453-0.12109-0.6875-0.23438-0.875-0.14844-0.25-0.35156-0.44141-0.60938-0.57812-0.25-0.14453-0.54297-0.21875-0.875-0.21875-0.79297 0-1.418 0.3125-1.875 0.9375-0.46094 0.61719-0.6875 1.4648-0.6875 2.5469v5.8906h-3.8125v-11.969h3.8125v1.75c0.58203-0.69531 1.1953-1.207 1.8438-1.5312 0.64453-0.33203 1.3594-0.5 2.1406-0.5 1.3828 0 2.4297 0.42969 3.1406 1.2812 0.71875 0.84375 1.0781 2.0742 1.0781 3.6875z"/>
  </symbol>
  <symbol id="l" overflow="visible">
   <path d="m2.0156-15.953h6.8125c2.0312 0 3.5859 0.45312 4.6719 1.3594 1.0938 0.89844 1.6406 2.1797 1.6406 3.8438 0 1.6797-0.54688 2.9688-1.6406 3.875-1.0859 0.89844-2.6406 1.3438-4.6719 1.3438h-2.7031v5.5312h-4.1094zm4.1094 2.9844v4.4531h2.2656c0.80078 0 1.4141-0.19141 1.8438-0.57812 0.4375-0.38281 0.65625-0.9375 0.65625-1.6562 0-0.70703-0.21875-1.2539-0.65625-1.6406-0.42969-0.38281-1.043-0.57812-1.8438-0.57812z"/>
  </symbol>
  <symbol id="k" overflow="visible">
   <path d="m1.8438-11.969h3.8125v11.75c0 1.6016-0.38672 2.8281-1.1562 3.6719-0.76172 0.84375-1.8711 1.2656-3.3281 1.2656h-1.8906v-2.5h0.65625c0.72656 0 1.2266-0.16797 1.5-0.5 0.26953-0.32422 0.40625-0.96875 0.40625-1.9375zm0-4.6562h3.8125v3.125h-3.8125z"/>
  </symbol>
  <symbol id="j" overflow="visible">
   <path d="m11.5-11.594v3.125c-0.52344-0.35156-1.043-0.61328-1.5625-0.78125-0.52344-0.17578-1.0625-0.26562-1.625-0.26562-1.0742 0-1.9062 0.3125-2.5 0.9375s-0.89062 1.4961-0.89062 2.6094c0 1.1172 0.29688 1.9844 0.89062 2.6094s1.4258 0.9375 2.5 0.9375c0.59375 0 1.1562-0.085937 1.6875-0.26562 0.53906-0.17578 1.0391-0.44141 1.5-0.79688v3.125c-0.59375 0.23047-1.1992 0.39453-1.8125 0.5-0.61719 0.11328-1.2344 0.17188-1.8594 0.17188-2.1562 0-3.8438-0.55078-5.0625-1.6562-1.2188-1.1133-1.8281-2.6562-1.8281-4.625s0.60938-3.5039 1.8281-4.6094c1.2188-1.1133 2.9062-1.6719 5.0625-1.6719 0.625 0 1.2383 0.058594 1.8438 0.17188 0.61328 0.10547 1.2227 0.26562 1.8281 0.48438z"/>
  </symbol>
 </defs>
 <g>
  <path d="m296.93 329.61h-0.58984c-1.2188 0-2.3203 0.03125-3.5352-0.03125-0.59375 0-1.1914-0.027343-1.75-0.027343l-0.11719-0.03125h-0.29688l-0.058594-0.03125-0.21094-0.03125-0.38672-0.058594-0.80078-0.14844c-1.043-0.17969-2.0195-0.35938-3-0.53516-0.98047-0.26953-1.9609-0.625-2.8828-0.875l-0.91797-0.32812v0.003906c-8.7656 0.98438-17.637-0.31641-25.754-3.7695-0.3125-0.12109-0.62109-0.25781-0.91797-0.41406-2.5547 5.9414-5.25 11.996-7.6328 18.297v0.5625h-0.003906c0.10547 3.2109 0.94922 6.3555 2.4688 9.1875l0.62109 1.0703c0.21484 0.42969 0.48438 0.82812 0.80078 1.1875l1.043 1.2773 0.53516 0.65234 0.23438 0.29688 0.12109 0.12109c0.73828 0.62109 1.4531 1.3633 2.1875 1.9844v0.003906c0.77344 0.57422 1.5859 1.0898 2.4375 1.543 2.8516 1.4766 6.1992 1.6523 9.1875 0.47656-2.1016-1.6055-3.9414-3.5234-5.4648-5.6875-0.11719-0.17969-0.17578-0.32812-0.26562-0.47656-0.71484-0.4375-1.3633-0.91797-1.9609-1.3633-1.7578-1.3906-3.2539-3.082-4.4219-4.9922-0.65625-1.3359-0.83203-2.2266-0.47656-2.5547 0.35547-0.32812 1.2461-0.058594 2.5234 0.74219 1.2773 0.71484 2.8516 1.5156 5.0195 2.625 4.1914 1.7852 11.109 4.3086 15.953 2.082h-0.003907c0.98047-0.64453 1.8633-1.4258 2.625-2.3164 1.0508-1.1797 2.1914-2.2734 3.418-3.2695 0.68359-0.50391 1.3125-1.0078 1.9922-1.4844h-0.003907c-5.3555 1.4023-11.012 1.1445-16.219-0.74219-3.6094-1.1445-6.8125-3.2969-9.2383-6.2031-1.6641-2.2891-1.6914-3.6523-1.3711-3.9375 0.41406-0.35547 1.4883 0.83203 3.2695 1.9297 2.6367 1.6953 5.5859 2.8438 8.6719 3.3867 4.4102 0.94922 8.9961 0.70312 13.277-0.71484 2.4062-1.1836 4.668-2.6406 6.7422-4.3359 1.4258-1.043 2.9375-1.9648 4.5156-2.7617zm314.32 2.3438h0.003906c0.95312 0.98438 1.4102 2.3477 1.2383 3.7109-0.16797 1.3594-0.94531 2.5703-2.1133 3.2891-2.5742 1.2422-5.25 2.2656-7.9922 3.0625-15.32 5.4453-30.023 12.48-43.871 21-13.422 9.0625-24.383 20.969-37.094 30.918-19.273 15.121-45.559 21.234-68.043 29.75-28.512 10.84-54.289 27.562-81.348 41.461-27.293 14.051-55.016 27.176-83.16 39.375h-0.003906c-1.9375 0.84375-4.1992 0.30859-5.5547-1.3125-0.85156-0.36719-1.5664-0.98828-2.0469-1.7773-8.7891-14.195-21.59-25.129-32.375-37.75-9.4141 14.285-35.461 17.402-50.219 17.434-16.219 0.0625-38.223-5.3477-37.809-26.285 0.26562-12.711 0.11719-26.613 13.008-29.523h-0.003906c0.015624-5.207 0.52344-10.398 1.5117-15.508 0.20703-1.4844 1.2852-2.7031 2.7344-3.0859 5.0469-6.7969 16.871-8.9375 24.145-10.215l0.003907-0.003906c0.80469-0.14453 1.6367-0.070313 2.4062 0.21094 1.2461-3.418 2.625-5.2891 1.7227-8.7031-1.25-3.3203-2.832-6.5039-4.7266-9.5039-3.293-6.2656-6.8906-12.387-10.422-18.5l0.003906-0.003906c-7.3281-11.793-13.543-24.242-18.566-37.188-0.54297-0.59375-0.89453-1.3359-1.0078-2.1328-3.5977-23.188-21.086-38.402-31.5-58.332-10.188-19.605-20.465-39.18-28.66-59.727v-0.003907c-0.14453-0.39062-0.23438-0.80078-0.26953-1.2188-8.4336-12.102-15.652-25.004-21.555-38.523-0.32031-0.66406-0.48438-1.3945-0.47656-2.1328-1.1758-0.82422-1.8281-2.2148-1.7031-3.6484 0.12109-1.4336 0.99609-2.6914 2.2969-3.3047 52.383-24.355 104.48-52.984 160.23-68.91 25.75-7.3672 53.254-11.812 78.086-21.949 10.75-4.375 25.184-10.938 33.441-0.0625 16.039-9.5625 35.641-17.223 46.152-0.53516v0.003906c8.1406 13.832 10.422 30.344 6.3281 45.863-0.38672 1.75-0.76953 3.5352-1.1875 5.3477v-0.003907c0.054687 0.035157 0.10547 0.074219 0.14844 0.125 16.363 16.871 22.484 38.609 43.125 51.945v-0.003906c9.3125 5.2695 18.078 11.445 26.168 18.445 8.5625 9.0781 16.574 18.66 23.996 28.691 17.348 21.828 34.539 43.895 52.984 64.832 16.605 18.832 35.848 35.113 51.977 54.383zm-12.504 1.8164c0.59375-0.21094 1.1914-0.41406 1.75-0.625-16.336-18.5-35.078-34.719-51.188-53.488-5.1406-6.0039-10.199-12.051-15.176-18.148-3.5-2.2891-7.1562-4.75-10.938-7.3984-4.9297-3.4141-9.8594-6.5-14.227-9.625-3.9336-2.6992-7.6289-5.7305-11.047-9.0625-2.332-2.2617-4.3594-4.8164-6.0312-7.6016-1.1289-1.9609-1.6328-3.1445-1.3125-3.3555 0.62109-0.5625 3.8008 3.5977 9.7422 8.3125 3.6055 2.8242 7.3633 5.4531 11.258 7.875 3.5625 2.3203 7.543 4.7188 11.641 7.4375-8.9414-11.109-17.793-22.312-26.688-33.441-9.1875-11.492-17.703-23.551-30.117-31.812-2.5859-1.6875-5.1992-3.3555-7.8086-4.9883 5.1133 6.2031 9.7773 12.766 13.957 19.633 3.5664 6.5039 5.1992 10.812 4.6641 11.168-0.65234 0.38672-3.3867-3.3555-7.6914-9.3281-4.375-5.7305-10.754-13.539-18-22.215-2.4375-2.9414-4.6953-5.8477-6.8047-8.6719-0.41406-0.32812-0.83203-0.625-1.2461-0.94922-15.117-12.059-21.355-29.492-33.355-43.719-0.90234 3.0117-1.9883 5.9648-3.2539 8.8398-3.1445 6.9219-7.75 13.066-10.57 20.125-2.1406 5.4336-5.6875 9.9805-2.4375 15.797v0.003906c-7.2344-1.2695-14.539-2.125-21.875-2.5547-2.5742-0.22266-5.1641-0.28125-7.7461-0.17578-0.625 0.058593-4.1602 1.0664-4.3086 1.0664 4.25 1.6641 8.9688 0.03125 13.395 1.457 6.3555 2.3164 11.633 6.8945 14.824 12.859-0.50781-0.98047-6.3555 1.2148-7.1602 1.75h-0.003906c-1.9961 1.543-3.7656 3.3633-5.25 5.4023-3.2227 4.4375-5.5547 9.4609-6.8594 14.793-3.0625 10.5-3.8008 22.188-9.2969 31.812v-0.003906c-3.5469 5.6875-9.5312 9.4023-16.199 10.059-2.625 0.4375-5.3477 0.80078-7.9023 1.4258 5.4375 2.4922 15.473 7.5742 17.551 13.664-3.4141 1.1289-6.5312 0.83203-9.3242 3.5h0.003906c-1.4531 1.6953-2.7539 3.5156-3.8945 5.4336-4.0078 5.3477-8.2266 10.309-11.812 16.008-6.8906 10.938-13.066 22.691-22.984 31.309h-0.003907c-3.2852 2.8906-6.9141 5.3633-10.809 7.3633l1.8438-0.17578h-0.003907c2.7773-0.32031 5.582-0.26953 8.3438 0.14453 3.3945 0.72266 6.4805 2.4922 8.8242 5.0508l4.75 5.1367-6.9531 0.5625c-1.3945 0.085937-2.9961 0.26562-4.2734 0.29688l-1.9609 0.11719c-0.47656 0.0625-0.98047 0.11719-1.457 0.14844l0.003906 0.003906c-0.75 0.10156-1.4844 0.28906-2.1875 0.56641l-1.043 0.32812c-0.085937 0.027344-0.29688 0.11719-0.29688 0.11719l-0.4375 0.20703c-1.2578 0.625-2.4648 1.3398-3.6211 2.1367-0.5625 0.41406-1.1875 0.80078-1.7812 1.2148 0.058593 0.03125 4.8125 1.1602 4.8125 1.1602l-3.7148 3.6211c-0.875 0.875-1.8984 1.9023-2.9414 2.7656-0.50781 0.41406-1.0117 0.875-1.543 1.3125-0.41406 0.39062-0.875 0.77344-1.3125 1.1602-0.98828 0.95703-1.9219 1.9688-2.793 3.0352-1.2188 1.5234-2.7031 2.8164-4.375 3.8281-1.1797 0.66406-2.4648 1.125-3.8008 1.3672-0.625 0.12891-1.2578 0.21094-1.8984 0.23828l-1.0117 0.03125 4.4219 2.2266-4.4648 2.8203c-1.2148 0.76953-2.4375 1.6641-3.8594 2.4062-1.5352 0.76953-3.1641 1.3438-4.8398 1.7188-3.8203 0.91406-7.8398 0.38672-11.289-1.4844-1.2812-0.66016-2.4961-1.4453-3.6211-2.3438-1.043-0.875-1.9297-1.8438-2.8789-2.7656l-0.14844-0.17578-0.26562-0.29688-0.0625-0.09375-0.26562-0.35547-0.50781-0.68359-0.98047-1.3398-0.003906 0.007812c-0.66797-1.0781-1.2734-2.1953-1.8086-3.3438-0.3125-0.67969-0.58984-1.3711-0.83203-2.0781-0.35547 0.98047-0.71484 1.8984-1.0977 2.8789-1.5742 4.0742-3.1484 8.2617-4.9883 12.297-4.3398 9.9492-9.4453 19.84-13.875 30.145 3.7422 0.67578 7.0977 2.7227 9.4141 5.7344 2.3164 3.0156 3.4297 6.7812 3.1211 10.57 1.2148 2.3164 1.9922 4.8398 2.2891 7.4375 4.9492-0.03125 9.3594 3.1172 10.938 7.8125 2.2656 8.0586 3.1211 16.449 2.5234 24.801 11.109 14.465 25.516 26.02 35.551 41.371 27-11.789 53.637-24.352 79.777-37.926-7.7812 3.0312-15.355 5.2266-22.34 7.543-9.9805 3.1797-18.98 6.0312-26.492 8.5273-15.09 4.8984-24.535 7.6055-24.77 6.9492s8.793-4.543 23.555-10.277c7.3633-2.9414 16.246-6.125 26.164-9.5312l0.003906-0.007812c10.754-3.3477 21.289-7.3633 31.543-12.027 10.723-5.25 20.82-11.02 30.684-15.059h-0.003906c2.3867-1.0352 4.8281-1.9492 7.3086-2.7344 2.3438-0.76953 4.6328-1.543 6.8281-2.2539 0.98047-0.32812 1.9023-0.65625 2.8516-0.98438 9.0977-4.6719 18.461-8.8164 28.035-12.41 14.793-5.4648 30.117-10.062 44.402-16.781 14.129-6.9805 27.113-16.074 38.5-26.969 1.5703-1.3945 3.1758-2.6719 4.75-3.9805-1.4258 0.65625-2.8828 1.3398-4.3359 2.0195-13.516 6.2969-25.453 12.504-33.98 17.137-8.5039 4.8125-13.832 7.8125-14.234 7.1719-0.35938-0.53516 4.2422-4.5469 12.293-10.188 10.777-7.0703 22.066-13.324 33.77-18.715 9.3828-4.3359 18.203-8.1055 25.777-11.227 12.516-7.3789 25.609-13.738 39.148-19.008 0.49609-0.38281 1.0586-0.66797 1.6641-0.83984zm-198.37-208.95c5.1406-16.07 11.883-38.672 1.9922-54.352h-0.003906c-1.6875-2.8047-4.1992-5.0234-7.1875-6.3555-0.17578 0.29688-0.32422 0.53516-0.53516 0.875h0.003907c-2.668 4.2227-5.5977 8.2773-8.7734 12.137-2.1406 2.6758-4.6211 5.6914-7.4375 9.0547-3.0938 3.7344-5.875 7.7148-8.3125 11.91-2.7031 4.6328-5.5273 10.012-8.9688 15.625 16.84 0.77344 22.156 1.9297 22.098 3.0625-0.058594 1.1328-5.9727 1.9336-24.801 1.2773-1.2461 2.0195-2.5859 4.0977-3.9375 6.207v-0.003906c4.8281-1.1055 9.7773-1.6133 14.73-1.5117 4.332 0.0625 8.6562 0.38281 12.949 0.94922 6.3867 0.83203 8.75 1.5156 8.75 2.1406s-2.5234 1.043-8.9688 1.0117c-3.207 0-7.3984-0.11719-12.688 0.03125v-0.003907c-6.2773 0.0625-12.504 1.1211-18.445 3.1484-0.41406 0.65625-0.83203 1.3125-1.2461 1.9922-1.1289 1.7812-2.2578 3.5938-3.418 5.4648v-0.003906c4.4141-1.0039 8.9336-1.4844 13.457-1.4258 5.0195 0 8.8516 0.24219 11.762 0.29688 2.9102 0.14844 4.8984 0.14844 6.207 0.26562 1.3086 0.11719 1.8984 0.39062 1.9609 0.68359 0.0625 0.29297-0.47656 0.65625-1.75 1.043-2.0508 0.61328-4.1602 1.0117-6.2969 1.1875-3 0.32422-6.8906 0.41406-11.762 0.65234h0.003907c-5.7773 0.10547-11.5 1.1172-16.965 3-1.0977 1.8984-2.1875 3.8906-3.293 5.9102 1.4844-0.5625 2.9414-1.043 4.3047-1.4258 3.1172-0.82812 6.2969-1.3945 9.5078-1.6914 4.4609-0.44141 8.9453-0.57422 13.422-0.39062 6.6836 0.26953 9.1875 0.83594 9.2109 1.4258 0.023437 0.58984-2.5547 1.1914-9.1211 1.7227-3.293 0.29688-7.6289 0.5625-13.008 1.3398-2.9805 0.39062-5.9297 0.99609-8.8203 1.8125-3.1602 0.83984-6.1641 2.168-8.9141 3.9375-3.5 7.3047-6.5039 15.5-9.918 24.203-0.50781 1.2773-1.043 2.625-1.543 3.9375 5.0898-0.85156 10.262-1.1133 15.414-0.76953 5.25 0.23438 9.2969 0.62109 12.355 0.875 3.0586 0.25391 5.168 0.47656 6.5039 0.65625 1.3398 0.17969 1.9922 0.50391 1.9922 0.80078s-0.53516 0.625-1.9023 0.94922h-0.003906c-2.1953 0.45703-4.4336 0.70703-6.6797 0.74219-3.1211 0.14844-7.1875 0.085938-12.355 0.0625-5.8047-0.16797-11.609 0.38281-17.285 1.6328-0.68359 1.7227-1.3711 3.4727-2.1094 5.25 4.0273-0.83984 8.1406-1.2188 12.25-1.1289 4.9062 0.058594 8.6445 0.38672 11.469 0.59375 5.6875 0.4375 7.8398 0.70703 7.9023 1.3633 0.058594 0.5625-2.1094 1.4258-7.9023 1.7812-2.9102 0.21094-6.6836 0.21094-11.406 0.38672-4.8867 0.042969-9.7461 0.76563-14.438 2.1406-0.4375 1.1289-0.875 2.1875-1.3711 3.3281-0.875 1.8672-1.7188 3.7969-2.625 5.6875h0.003906c4.5352-1.7773 9.2422-3.082 14.047-3.8906 4.3555-0.72656 8.7461-1.1992 13.156-1.4258 6.5977-0.29688 9.0898 0.03125 9.1875 0.65234s-2.375 1.3945-8.8203 2.4922c-3.2383 0.5625-7.4375 1.2188-12.715 2.3203-6.1602 1.2773-12.141 3.3203-17.793 6.0859-1.3398 2.7617-2.7617 5.5508-4.2773 8.3438 2.75 0.48437 5.5586 0.5625 8.332 0.22656 3.207-0.37109 6.375-1.0078 9.4766-1.9023 5.6406-1.543 10.004-3.207 13.359-4.375 6.7148-2.4336 9.4453-3.0898 9.6875-2.4922 0.24219 0.59375-1.9922 2.1875-8.4648 5.4062-4.332 2.1328-8.8203 3.9375-13.426 5.4023-3.2969 1.082-6.6875 1.8477-10.129 2.2891-3.6797 0.52734-7.4297 0.35547-11.047-0.50781-3 5.3477-6.2383 10.754-9.5938 16.188-1.1289 1.8711-2.2852 3.7461-3.4141 5.6445 1.2148 0.03125 2.3125 0.09375 3.293 0.14844h0.003906c1.543 0.18359 3.0703 0.47656 4.5742 0.875 2.2852 0.62109 3.0625 1.2461 2.9648 1.8672-0.097656 0.62109-1.0078 1.0703-3.293 1.2773-1.1289 0.09375-2.5859 0.09375-4.4531 0.0625-1.6055 0.085938-3.5 0.14844-5.7344 0.14844-1.3125 2.1875-2.625 4.4219-3.9375 6.7109 1.3398-0.14844 2.625-0.23438 3.8633-0.26563 2.6719-0.085937 5.0469 0 7.1562 0.03125v-0.003906c3.2695 0.16797 6.543 0.14062 9.8086-0.078125 4.7539-0.41406 6.418-1.3711 6.8047-0.74219 0.17969 0.26562-0.085938 0.74219-1.043 1.543-1.5664 1.1172-3.3438 1.9023-5.2227 2.3164-3.3867 0.75-6.8398 1.1289-10.309 1.1289-4.6094-0.082031-9.2148 0.28906-13.75 1.1016-1.2773 2.3438-2.5234 4.7188-3.7148 7.1562 1.8125 0.22656 3.6406 0.30469 5.4648 0.23828 2.6602-0.13281 5.3086-0.42578 7.9297-0.875 4.75-0.76953 8.4922-1.6914 11.344-2.2852 5.6875-1.3125 7.9883-1.543 8.1992-0.95312 0.21094 0.58984-1.7227 1.8711-7.3047 3.9805-3.7461 1.3789-7.5898 2.4883-11.492 3.3242-2.7891 0.60547-5.6172 1.0039-8.4648 1.1914-2.5703 0.16797-5.1523 0.046875-7.6953-0.35938-0.41406 0.875-0.875 1.75-1.3125 2.6719-1.6367 3.6836-3.3281 7.3984-5.0234 11.168v0.003906c5.7695-0.84375 11.473-2.1055 17.062-3.7734 4.3125-1.3242 8.4961-3.0352 12.504-5.1094 1.457-0.875 2.793-1.4531 3.8008-2.0781 1.0117-0.625 1.8438-1.1602 2.4922-1.543 1.3711-0.74219 2.082-0.91797 2.2891-0.71484 0.20703 0.20703-0.11719 0.875-1.1602 2.0469-0.53516 0.59375-1.2148 1.3398-2.1367 2.2305-0.91797 0.89062-2.1875 1.6914-3.6523 2.7617h0.003906c-3.9922 2.6406-8.3047 4.7578-12.832 6.2969-6.6836 2.2578-13.57 3.8477-20.562 4.75-1.2461 2.7344-2.4922 5.4961-3.7422 8.2852 7.5117 0.49219 15.023-0.9375 21.828-4.1562 5.0117-2.5039 9.8008-5.4297 14.32-8.75 7.0352-4.9297 9.8867-6.6484 10.273-6.1484 0.38672 0.50391-1.7188 3-8.3438 8.6445l-0.003907 0.003906c-4.4141 3.8672-9.2578 7.2148-14.438 9.9805-1.7227 0.73828-3.5664 1.5703-5.4961 2.375-2.0508 0.5625-4.1914 1.1289-6.4492 1.75-2.3125 0.24219-4.75 0.50781-7.2773 0.80078-2.0469-0.085938-4.1875-0.14453-6.3555-0.20703-1.1562 2.5547-2.3125 5.1367-3.4727 7.7227 11.812 4.375 22.844 7 34.273-1.1914h0.003906c7.5742-5.9414 13.82-13.41 18.324-21.918 6.8008-12.605 15.656-23.992 26.199-33.688-6.207-4.9883-13.781-12.441-21.98-13.664 5.2734-3.8828 11.41-6.4336 17.883-7.4375 5.1992-1.3125 10.812-1.1289 15.266-4.5703 7.6328-5.9414 8.2852-17.285 10.363-25.957 2.5859-10.691 5.5859-21.801 14-28.84 0-0.24219-7.543-2.2266-8.082-2.4062-2.2852-0.71484-4.3047-2.0781-6.625-2.8516-5.2812-1.4727-10.762-2.125-16.242-1.9297-1.7227 0 4.375-6.8594 5.0195-7.25h-0.003906c3.7969-1.707 7.7539-3.0273 11.812-3.9375 8.4648-2.625 17.469-2.9727 26.105-1.0117 1.6797-12.492 10.805-21.551 14.75-33.848zm-9.3828-59.5c0.92188-0.83203 1.6055-1.4531 2.1875-1.9297-20.672-5.8203-57.5 27.414-67.691 39.445-41.934 49.438-66.352 116.24-85.684 177.19 0.042968 0.21484 0.074218 0.43359 0.085937 0.65234 0.33203 8.8164 2.7305 17.434 7 25.156 2.8164-6.6484 5.5195-13.188 8.1641-19.602-2.4102-2.4375-4.207-5.4102-5.25-8.6758-0.72656-2.0508-1.2891-4.1562-1.6953-6.2969-0.5625-3.1445-0.4375-4.4219 0.14844-4.6641 0.58594-0.24219 1.543 0.77344 2.8789 3.7148 0.68359 1.457 1.457 3.3555 2.4688 5.6875 0.86328 2.0312 1.9805 3.9414 3.3242 5.6875 1.2461-3.0273 2.4922-6.0586 3.7422-9.0312l-0.23438 0.09375c-1.5156-3.9375-2.7617-7.3359-3.7422-10.129-0.73828-2.2852-1.3047-4.625-1.6953-7-0.29688-3.6797 0-5.0469 0.62109-5.1055 0.62109-0.058593 1.4258 1.1875 2.4688 4.3359 0.53516 1.6016 1.4844 3.6523 2.4648 6.2969 0.74219 1.6914 1.5742 3.7148 2.5 6 0.73828-1.5703 1.4805-3.1172 2.2266-4.6328l-0.003906-0.003906c0.0625-0.18359 0.14062-0.36328 0.23828-0.53125-3.8047-5.0156-6.4609-10.805-7.7852-16.957-0.085937-0.94922-0.17578-1.75-0.17578-2.4375h0.003906c0.039062-0.55859 0.12109-1.1133 0.23438-1.6641 0.20703-0.875 0.47656-1.1914 0.76953-1.1914 1.5742 0 0.80469 4.8125 9.2109 17.582 0.68359-1.4531 1.3945-2.9102 2.0781-4.3359 3.4727-6 6.7109-11.938 10.098-17.465 2.9141-4.8398 5.8242-9.5312 8.5273-14.137v0.003906c-2.1289-1.5742-3.9766-3.4961-5.4648-5.6875-1.3203-1.8945-2.4883-3.8906-3.5-5.9648-1.3984-2.8945-2.6211-5.8711-3.6602-8.9141-1.4531-4.5703-1.6328-6.4141-1.0664-6.6484 0.5625-0.23438 1.7812 1.2148 3.9805 5.4023 1.1289 2.0781 2.4922 4.8438 4.375 8.2305 1.043 1.8398 2.1797 3.625 3.4141 5.3438 1.207 1.6367 2.6367 3.0977 4.2461 4.3359 0.5625-0.95312 1.0977-1.9023 1.6641-2.8516-2.0469-3.5664-3.7422-6.5938-5.1055-9.1484-1.5156-2.8516-2.6758-5.168-3.4766-6.9531-1.6016-3.5625-1.8125-5.0742-1.2734-5.3438 0.53906-0.26562 1.7812 0.73828 4.0391 3.8281 1.1289 1.543 2.5234 3.5977 4.2188 6.3281 1.2148 1.9336 2.625 4.2188 4.1562 6.8594 1.2188-2.1367 2.375-4.2422 3.418-6.3828 0.17969-0.35938 0.32813-0.68359 0.50391-1.0117l-0.003907 0.003906c-1.543-4.3047-3.5547-8.4297-6-12.293-2.0195-3.3867-3.5938-6.0586-4.6953-8.2305-2.1875-4.2773-2.4062-6.2383-1.8984-6.4766 0.59375-0.29688 1.7812 1.0703 4.6016 4.8125 1.3633 1.8984 3.2383 4.375 5.4648 7.6914 2.0078 2.918 3.7656 5.9961 5.25 9.2109l0.62109-1.2461c0.98047-2.0508 1.9336-4.0742 2.8828-6.0898-1.7812-4.1602-3.207-7.6641-4.3359-10.574-1.3125-3.0273-2.375-5.4023-3.0625-7.2461-1.3984-3.7148-1.543-5.3203-1.0117-5.5859 0.53516-0.26562 1.7188 0.83203 3.8594 4.1914 1.043 1.6914 2.4062 3.9375 3.9375 6.8906 0.92188 1.9844 1.9922 4.3047 3.1211 6.918 1.6367-3.5 3.2695-6.9766 4.8438-10.363 3.7422-8.2266 7.6602-15.801 11.609-22.836l0.003907-0.003906c-2.6562-2.6523-4.6836-5.8594-5.9375-9.3906-0.83984-2.2617-1.5078-4.5859-1.9922-6.9531-0.68359-3.4727-0.62109-4.8711-0.027343-5.1055s1.5703 0.875 3.0273 4.125c0.71484 1.6055 1.6055 3.6836 2.793 6.3555v0.003906c1.0898 2.5312 2.5859 4.8672 4.4258 6.9219 0.71484-1.2461 1.4531-2.5 2.1641-3.7148-1.0977-1.5742-2.1641-3.0625-3.1445-4.4219-0.98047-1.9922-1.8711-3.7773-2.6719-5.4062v-0.003907c-0.58203-1.4883-1.0586-3.0156-1.4258-4.5703-0.40234-1.1719-0.65234-2.3906-0.74219-3.6289-0.35547-4.2188-0.0625-5.8203 0.5625-5.8789 0.625-0.0625 1.4258 1.3945 2.4922 5.1992h0.003906c1.6758 5.2539 4.1602 10.215 7.3672 14.703 1.0977-1.7852 2.1875-3.5 3.293-5.25-1.3125-3.5352-2.625-6.5625-3.4414-9.2109-0.76562-2.207-1.2656-4.5-1.4844-6.8281-0.14844-1.2734-0.058594-2.5625 0.26562-3.8008 0.23438-0.76953 0.53516-1.0977 0.83203-1.0664s0.62109 0.32422 0.91797 1.0078c0.29688 0.68359 0.5625 1.75 1.0977 3.2695 0.53516 1.5195 1.1914 3.4727 2.2266 6.0039 0.71484 1.7188 1.6055 3.7109 2.5859 6.0859 0.59375-0.875 1.1914-1.8125 1.7812-2.6719v-0.007812c12.398-18.234 26.234-35.445 41.375-51.473 4.6328-4.9961 8.2305-8.3359 10.512-10.535zm-23.91 30.949c0.32812-0.50391 0.68359-1.0117 1.0117-1.5156-7.2148 9.1172-15.75 20.586-25.336 35h-0.003907c-9.7695 14.91-18.32 30.582-25.57 46.867-2.1094 4.6602-4.2734 9.5039-6.5312 14.465-1.1289 2.4922-2.2852 5.0195-3.4727 7.5742-1.2773 2.5547-2.5859 5.1094-3.8945 7.7227-2.5234 5.3164-5.6445 10.457-8.7031 15.797-3.0625 5.4062-6.3828 10.723-9.6836 16.305-3.2969 5.582-6.4766 11.375-9.8594 17.258-1.4531 3.0625-2.9102 6.1484-4.375 9.2656-1.4648 3.1211-3.0625 6.2344-4.3359 9.6523-5.5508 13.336-11.047 27.477-17.434 42.145-3.207 7.3672-6.4766 14.891-9.8008 22.574-3.207 7.7227-7.125 15.562-11.227 23.344-7.7227 14.73-16.246 29.965-20.703 46.984 1.6016 0.81641 3.2734 1.4805 4.9922 1.9883 5.3164-17.254 13.719-32.105 20.047-46.777 1.8438-3.9375 3.3242-7.957 4.8711-11.883 1.543-4.0391 3.0898-8.0156 4.6328-11.965 2.9141-7.9922 6.418-15.449 9.5625-22.844 6.6562-14.613 12.98-28.512 18.98-41.699v0.003906c5.9023-12.578 12.664-24.734 20.246-36.383 6.6289-10.285 12.617-20.969 17.938-31.988 1.2188-2.582 2.4375-5.168 3.625-7.6914 1.0977-2.5859 2.168-5.1328 3.207-7.6328 2.1641-5.0195 4.0977-9.9492 6-14.699 3.8945-9.5078 7.25-18.625 11.555-26.762v-0.003906c3.9414-7.4766 8.2812-14.734 13.008-21.738 4.25-6.5352 8.3125-12.445 11.812-17.938s6.5-10.691 9.4414-15.418zm-13.094-28.66c-5.7344-6.0273-20.613 3.0312-26.465 5.0469-8.8828 3.0898-18 5.5273-27.086 7.9336-4.043 1.8672-8.4336 3.5938-13.043 5.25-11.73 4.1562-22.273 7.5742-29.523 10.867-7.0977 3.1484-11.434 6.207-11.879 5.4961-0.21094-0.26563 0.62109-1.2773 2.2891-2.8516v-0.003906c2.4336-2.2148 5.1016-4.1562 7.957-5.7891 1.543-0.92188 3.2969-1.8438 5.1367-2.7344-9.8555 2.7031-19.66 5.6133-29.281 9.0625-23.078 8.2539-45.594 18.086-67.863 28.438 1.2148-0.32422 2.4336-0.68359 3.6211-1.0078 3.207-0.92188 6.3281-1.668 9.1875-2.5234 2.8594-0.85938 5.5547-1.7852 8.1094-2.5859 2.5547-0.80078 4.8398-1.7812 7-2.5234 4.3359-1.457 7.7227-2.9688 10.184-3.7422 2.4648-0.76953 3.8945-1.1602 4.043-0.83594 0.14844 0.32422-0.98047 1.2188-3.1797 2.5859h0.003906c-3.1133 1.9609-6.3477 3.7148-9.6836 5.25-2.1094 0.98047-4.375 2.1094-6.9219 3.1445s-5.3477 2.0195-8.2539 3.1211c-2.9102 1.0117-5.9727 1.8438-9.1484 2.8203-3.1758 0.98047-6.3555 1.9023-9.6836 2.9102-12.832 4.7812-24.387 10.691-33.531 13.043-2.1094 0.47266-3.9805 0.875-5.6875 1.1875-7.3945 3.5625-14.809 7.0898-22.246 10.574 5.4141 12.797 12.176 24.984 20.172 36.352 0.64844 0.78516 1.0078 1.7695 1.0078 2.7891 0.37109 0.41016 0.66797 0.88281 0.875 1.3984 9.0469 24.164 20.742 47.254 34.871 68.848 5.25 7.5742 10.785 15.117 15.387 23.074-0.78906-4.3516-1.9297-8.6328-3.418-12.797-0.38672-0.875-0.76953-1.7852-1.1289-2.6719l-0.29688-0.65625-0.29688-0.59375-0.68359-1.3125c-0.91797-1.7227-1.75-3.5664-2.6992-5.168-0.94922-1.6016-1.8711-3.2109-2.7969-4.7539-0.92187-1.543-1.8984-3.0898-2.8203-4.5703v-0.003906c-3.4336-5.3164-6.5977-10.801-9.4805-16.434-4.8984-9.832-5.6875-16.723-5.168-16.781 0.80078-0.23438 2.793 6.0898 8.2539 15.059 2.625 4.5469 6.3555 9.7109 10.277 15.594 0.98047 1.4844 1.9922 3 3.0273 4.5703 1.0117 1.6367 2.0195 3.2969 3.0625 4.9609 1.043 1.6641 1.8438 3.4492 2.793 5.1992l0.71484 1.3398 0.38672 0.73828 0.29687 0.74219 1.2461 2.9414-0.003906-0.003906c2.5391 7.4531 4.1758 15.18 4.8711 23.02 0.24219 2.1094 0.47656 4.0977 0.71484 6.0312 1.3906 3.7852 2.4141 7.6914 3.0625 11.668v0.14844c0.3125 0.40625 0.56641 0.85938 0.74219 1.3398 7.4375 21.438 21.438 39.441 31.098 59.789 3.3555-6.8633 6.9219-13.395 10.246-19.785 2.0781-3.9766 4.0977-7.875 6-11.789-0.61719 0.015625-1.2344-0.015625-1.8438-0.085938-2.832-0.32031-5.5781-1.1875-8.0781-2.5547-1.1914-0.625-2.2266-1.3633-3.3242-2.0469-0.98047-0.77344-1.9609-1.543-2.8828-2.3477-0.92188-0.80469-1.75-1.6641-2.582-2.582-0.83203-0.91797-1.457-1.8711-2.082-2.7344v-0.003907c-0.99609-1.4844-2.1328-2.8789-3.3867-4.1562-0.92969-0.91016-2.125-1.5039-3.4102-1.6914-2.8203-0.39062-6.2383 0.26562-9.8047 0.027344l-4.0078-0.23438 1.6328-3.3242v-0.003906c0.40234-0.89062 0.85938-1.7539 1.3672-2.5859 0.57422-0.78516 1.25-1.4844 2.0195-2.0781 1.3633-1.0547 2.9648-1.7539 4.6641-2.0469 2.582-0.47656 5.2383-0.4375 7.8086 0.11719 2.4766 0.46875 4.9062 1.1758 7.25 2.1094-0.80469-1.4648-1.4961-2.9844-2.0781-4.5469-1.5195-4.0078-2.5234-8.4062-4.043-12.387-0.4375-1.1055-0.93359-2.1836-1.4844-3.2344l-5.1094-9.8594 9.625 4.9609c0.26562 0.11719 0.47656 0.29687 0.74219 0.4375v-0.003907c-0.46094-2.1406-0.50391-4.3477-0.12109-6.5039 0.24219-1.5664 0.74609-3.082 1.4883-4.4844 0.24219-0.49609 0.55078-0.95312 0.91797-1.3672 0.23438-0.25781 0.49609-0.49609 0.77344-0.71094 0.39062-0.24609 0.80859-0.44531 1.2461-0.59766 1.0781-0.26562 2.2227-0.074219 3.1523 0.53516v-0.058594l0.62109 0.17578 0.71484-0.23437 0.21094-0.875h-0.003907c0.085938-0.61719 0.25391-1.2188 0.50391-1.7852 0.29297-0.83594 0.70312-1.625 1.2148-2.3477 0.5625-0.68359 1.1602-1.3945 1.75-2.0781 0.62891-0.6875 1.293-1.3438 1.9922-1.957l1.0352-0.98047c0.33984 0.29297 0.66016 0.60938 0.95312 0.94922 1.3242 1.4531 2.5273 3.0117 3.5938 4.6641 0.625 1.0078 0.74219 1.3945 1.0664 1.9609 0.24219 0.47266 0.47656 0.94922 0.6875 1.4531l-0.17969-2.2266c0-0.14844 0.03125-0.26562 0.03125-0.4375v-0.003906c-0.19141-0.76172-0.16016-1.5664 0.085938-2.3125 12.797-42.656 29.766-83.949 50.664-123.27 16.215-29.375 33.113-60.973 61.863-80.062 2.8594-1.8828 6.3867-4.375 10.375-6.9922zm-110.74 384.87c0.015625-0.19922 0.015625-0.39844 0-0.59375-0.38672-5.0469 1.0703-21.59-7.5117-21.918v-0.003906c-0.46875-0.019531-0.92969-0.10938-1.3711-0.26562-0.027344 0-0.027344 0-0.058594-0.03125h0.003906c-9.3633 8.6094-21.777 13.125-34.484 12.535-0.19141 0.33984-0.46875 0.625-0.80078 0.83203-8.0195 5.375-6.5352 20.375-6.4766 29.434 6.6602 0.28906 13.328-0.28125 19.844-1.6914 8.7891-1.7812 27.445-4.1602 30.441-14.824-0.50781-1.1445-0.34766-2.4766 0.41406-3.4727zm-9.8164-115.65c3.1172-7.0977 6.1562-14.051 9.1172-20.852-4.1992-3.5547-7.5156-8.0391-9.6836-13.098-1.2461-2.5234-2.2266-4.957-3.207-7.3047-1.0117-2.4648-1.8125-4.75-2.625-6.918-0.41406-1.0703-0.80078-2.1406-1.2461-3.1211-0.21094-0.50781-0.41406-0.98047-0.65625-1.457l-0.47266-0.98047c-0.0625-0.11719-0.11719-0.32812-0.26562-0.14844l-0.0625 0.0625c-0.015625 0.011719-0.027343 0.035156-0.03125 0.054687l-0.085937 0.21094c-0.16797 0.32422-0.27734 0.67578-0.32812 1.0352l-0.14844 0.53906-0.027343 0.14844c-0.035157 0.17578-0.054688 0.35547-0.0625 0.53516l0.0625 0.76953c0.027343 1.043 0.085937 2.0508 0.14453 3.0625 0.12109 1.0977 0.53906 2.625 0.77344 3.8906 0.59375 2.7305 1.1914 5.4023 1.75 8.0195l-1.2188-1.1602-0.53516-0.47656c-0.14844-0.14844-0.53516-0.5625-0.77344-0.80078-1.0078-1.0664-2.0156-2.1094-2.9961-3.1484-0.98047-1.043-1.9023-2.0781-2.8203-3.0898-0.98047-1.1562-1.9609-2.4922-2.9414-3.5625-0.10547-0.125-0.21484-0.24609-0.32812-0.35938-0.55859 0.92969-0.96094 1.9414-1.1875 3.0039-0.68359 3.0078-0.44531 6.1562 0.68359 9.0273 1.4883 1.3594 2.875 2.8203 4.1562 4.375 1.8281 2.3203 3.8555 4.4766 6.0586 6.4453 3.6211 3 6.9531 3.5938 6.8906 4.6016-0.03125 0.41406-0.875 0.80078-2.5234 0.94922-2.375 0.042968-4.7227-0.50391-6.8281-1.6016-2.8242-1.5156-5.3984-3.4492-7.6406-5.7344 0.47656 1.9609 0.91797 3.8281 1.3945 5.5195 0.69531 3.0859 1.9883 6 3.8047 8.5859 1.3516 1.5508 2.9961 2.8242 4.8359 3.7461 1.668 0.65234 2.5273 1.2148 2.4688 1.6914-0.0625 0.47656-1.0664 0.83203-2.8203 1.0078-2.8945-0.03125-5.6914-1.0469-7.9336-2.8789-0.38672-0.32812-0.73828-0.71484-1.1289-1.0977-0.47266-0.12109-1.0078-0.26562-1.543-0.41406v-0.003906c-3.1641-0.83984-6.3789-1.4531-9.625-1.8398-1.4805-0.16406-2.9766-0.16406-4.4531 0 0.68359 0 1.3633 0 2.1367 0.058594l-0.003907-0.003906c2.4414 0.29688 4.7305 1.332 6.5625 2.9727 1.6289 1.5156 3.0977 3.1953 4.375 5.0156 0.62109 0.83594 1.2148 1.6367 1.7812 2.2891 0.5625 0.65234 1.3945 1.3398 2.0781 2.0195 0.80078 0.62109 1.5742 1.2461 2.4062 1.8984 0.875 0.50781 1.7227 1.1289 2.625 1.6055v0.003906c3.082 1.7148 6.6836 2.2422 10.129 1.4805 0.66406-1.5156 1.3164-3.0312 1.9688-4.5742zm-2.8203 88.953c-0.085937-0.59375-0.14844-1.2148-0.23438-1.8711-8.082 6.0586-21.875 4.5469-30.918 3.3555l-0.003907-0.003906c-5.6875-0.37109-11.301-1.5-16.691-3.3555-0.03125 1.5742-0.03125 3.1484 0.058594 4.75v0.003906c0.03125 0.58984-0.050781 1.1836-0.23828 1.75 5.7578 4.707 13.07 7.0781 20.492 6.6484 10.18-0.58594 19.867-4.5547 27.531-11.277zm-2.9102-12.785c0.47656-3.1211-2.793-6.125-6.5039-6.9531h-0.003907c-0.17187-0.035156-0.33984-0.082031-0.50391-0.14453-1.0117 2.7617-1.9609 5.5508-2.793 8.375h0.003906c1.082 1.2227 1.4531 2.9219 0.98047 4.4844 2.2656-0.22656 4.4414-0.99219 6.3555-2.2266 0.85938-0.57422 1.5625-1.3477 2.0469-2.2578 0.0625-0.44531 0.20312-0.87891 0.41797-1.2773zm-29.047 4.1562c2.375-1.9844 0.41406-11.195 3.1445-11.582-5.2852 0.76953-12.059 1.7227-15.266 5.4336-4.75 5.4922 8.9414 8.8047 12.121 6.1328zm-11.438 54.621c0-9.832-0.71484-22.961 5.9727-30.562-5.5859-0.99219-10.762-3.6055-14.875-7.5117-11.551 0.41406-9.4414 24.531-5.6133 29.672 3.625 4.5039 8.8008 7.4961 14.516 8.3867z"/>
  
 </g>
</svg>
