<?xml version="1.0" encoding="UTF-8"?>
<svg width="25px" height="25px" version="1.1" viewBox="0 0 700 700" xmlns="http://www.w3.org/2000/svg">
 <path fill ="#656565" d="m367.5 507.5v-52.5c0-0.31641 0-0.64844-0.015625-0.96094 78.695-8.6992 140.02-75.516 140.02-156.54 0-9.6602-7.8398-17.5-17.5-17.5s-17.5 7.8398-17.5 17.5c0 67.602-54.898 122.5-122.5 122.5s-122.5-54.898-122.5-122.5c0-9.6602-7.8398-17.5-17.5-17.5s-17.5 7.8398-17.5 17.5c0 81.023 61.32 147.84 140.02 156.54v0.070313c-0.015625 0.29688-0.015625 0.59375-0.015625 0.89062v52.5h-35c-9.6602 0-17.5 7.8398-17.5 17.5s7.8398 17.5 17.5 17.5h105c9.6602 0 17.5-7.8398 17.5-17.5s-7.8398-17.5-17.5-17.5zm70-202.35v-207.8c0-43.488-38.676-79.852-87.5-79.852-48.613 0-87.184 36.066-87.5 79.309v208.88c0.31641 43.242 38.887 79.309 87.5 79.309 48.824 0 87.5-36.363 87.5-79.852zm-35 0.015624c0 25.34-24.047 44.836-52.5 44.836-28.332 0-52.309-19.336-52.5-44.539v-208.42c0.19141-25.203 24.168-44.539 52.5-44.539 28.453 0 52.5 19.496 52.5 44.852v207.81z" fill-rule="evenodd"/>
</svg>
