<?xml version="1.0" encoding="UTF-8"?>
<svg width="25px" height="25px" version="1.1" viewBox="0 0 700 700" xmlns="http://www.w3.org/2000/svg">
 <g>
  <path d="m350 256.67c27.848 0 54.555-11.062 74.246-30.754 19.691-19.691 30.754-46.398 30.754-74.246 0-27.848-11.062-54.555-30.754-74.246s-46.398-30.754-74.246-30.754-54.555 11.062-74.246 30.754-30.754 46.398-30.754 74.246c0.0625 27.828 11.145 54.5 30.82 74.176 19.68 19.68 46.352 30.762 74.18 30.824zm0-186.67c21.66 0 42.43 8.6055 57.746 23.918 15.316 15.316 23.922 36.09 23.922 57.75 0 21.656-8.6055 42.43-23.922 57.746-15.316 15.316-36.086 23.918-57.746 23.918s-42.43-8.6016-57.746-23.918c-15.316-15.316-23.922-36.09-23.922-57.746 0-21.66 8.6055-42.434 23.922-57.75 15.316-15.312 36.086-23.918 57.746-23.918z"/>
  <path d="m350 280c-41.094 0.22656-81.105 13.18-114.54 37.082-33.426 23.902-58.629 57.574-72.133 96.383-5.957 17.496-3.0898 36.797 7.7031 51.801 10.941 15.207 28.402 24.367 47.133 24.734h263.67-0.003907c19.059-0.070312 36.934-9.2656 48.066-24.734 10.477-15.164 12.996-34.449 6.7695-51.801-13.504-38.809-38.707-72.48-72.133-96.383-33.43-23.902-73.441-36.855-114.54-37.082zm160.77 171.73c-6.6523 9.3711-17.438 14.938-28.934 14.934h-263.66c-11.496 0.003906-22.281-5.5625-28.934-14.934-6.4688-8.8125-8.2109-20.23-4.668-30.566 11.875-34.43 34.195-64.293 63.852-85.434 29.652-21.137 65.164-32.5 101.58-32.5s71.93 11.363 101.58 32.5c29.656 21.141 51.977 51.004 63.852 85.434 3.543 10.336 1.8008 21.754-4.668 30.566z"/>
 </g>
</svg>
