<?xml version="1.0" encoding="UTF-8"?>
<svg width="25px" height="25px" version="1.1" viewBox="0 0 700 700" xmlns="http://www.w3.org/2000/svg" xmlns:xlink="http://www.w3.org/1999/xlink">
 <defs>
  <symbol id="r" overflow="visible">
   <path d="m2.3438-0.14062c-0.125 0.0625-0.25781 0.10938-0.39062 0.14062-0.125 0.03125-0.25781 0.046875-0.39062 0.046875-0.42969 0-0.76562-0.11328-1.0156-0.34375-0.25-0.23828-0.375-0.5625-0.375-0.96875 0-0.41406 0.125-0.73828 0.375-0.96875 0.25-0.23828 0.58594-0.35938 1.0156-0.35938 0.13281 0 0.26562 0.015625 0.39062 0.046875 0.13281 0.03125 0.26562 0.078125 0.39062 0.14062v0.53125c-0.125-0.082031-0.24609-0.14453-0.35938-0.1875-0.11719-0.039062-0.24219-0.0625-0.375-0.0625-0.23047 0-0.41406 0.078125-0.54688 0.23438-0.13672 0.14844-0.20312 0.35547-0.20312 0.625 0 0.26172 0.066406 0.46875 0.20312 0.625 0.13281 0.14844 0.31641 0.21875 0.54688 0.21875 0.13281 0 0.25781-0.019531 0.375-0.0625 0.11328-0.039063 0.23438-0.10156 0.35938-0.1875z"/>
  </symbol>
  <symbol id="a" overflow="visible">
   <path d="m1.7188-1.3906c-0.054688-0.03125-0.10547-0.050781-0.15625-0.0625-0.054688-0.007813-0.10938-0.015625-0.17188-0.015625-0.15625 0-0.27734 0.054688-0.35938 0.15625-0.085938 0.10547-0.125 0.25-0.125 0.4375v0.875h-0.60938v-1.9219h0.60938v0.32812c0.082031-0.125 0.17188-0.21094 0.26562-0.26562 0.10156-0.0625 0.22656-0.09375 0.375-0.09375h0.0625 0.10938z"/>
  </symbol>
  <symbol id="d" overflow="visible">
   <path d="m2.2031-0.96875v0.1875h-1.4219c0.007812 0.13672 0.054688 0.24219 0.14062 0.3125 0.09375 0.074219 0.21875 0.10938 0.375 0.10938 0.13281 0 0.26953-0.015625 0.40625-0.046875 0.13281-0.039062 0.26953-0.10156 0.40625-0.1875v0.48438c-0.14844 0.054688-0.29297 0.089844-0.4375 0.10938-0.13672 0.03125-0.27734 0.046875-0.42188 0.046875-0.35547 0-0.625-0.085938-0.8125-0.26562-0.1875-0.17578-0.28125-0.42188-0.28125-0.73438s0.09375-0.55469 0.28125-0.73438c0.1875-0.17578 0.44531-0.26562 0.78125-0.26562 0.28906 0 0.52344 0.089844 0.70312 0.26562 0.1875 0.17969 0.28125 0.41797 0.28125 0.71875zm-0.625-0.20312c0-0.11328-0.039063-0.20312-0.10938-0.26562-0.0625-0.070312-0.15234-0.10938-0.26562-0.10938-0.11719 0-0.21094 0.03125-0.28125 0.09375-0.074219 0.0625-0.12109 0.15625-0.14062 0.28125z"/>
  </symbol>
  <symbol id="c" overflow="visible">
   <path d="m1.1562-0.85938c-0.13672 0-0.23438 0.023437-0.29688 0.0625-0.0625 0.042969-0.09375 0.10547-0.09375 0.1875 0 0.085937 0.023437 0.14844 0.078125 0.1875 0.050781 0.042969 0.125 0.0625 0.21875 0.0625 0.11328 0 0.20703-0.039063 0.28125-0.125 0.082031-0.082031 0.125-0.1875 0.125-0.3125v-0.0625zm0.9375-0.23438v1.0938h-0.625v-0.28125c-0.085938 0.11719-0.17969 0.19922-0.28125 0.25-0.09375 0.050781-0.21875 0.078125-0.375 0.078125-0.19922 0-0.35938-0.054688-0.48438-0.17188-0.11719-0.11328-0.17188-0.26562-0.17188-0.45312 0-0.21875 0.070312-0.37891 0.21875-0.48438 0.15625-0.10156 0.39844-0.15625 0.73438-0.15625h0.35938v-0.046875c0-0.10156-0.042969-0.17578-0.125-0.21875-0.074219-0.039063-0.1875-0.0625-0.34375-0.0625-0.13672 0-0.26172 0.015625-0.375 0.046875-0.10547 0.023438-0.21094 0.058594-0.3125 0.10938v-0.46875c0.13281-0.03125 0.26562-0.050781 0.39062-0.0625 0.13281-0.019531 0.26953-0.03125 0.40625-0.03125 0.34375 0 0.59375 0.070313 0.75 0.20312 0.15625 0.13672 0.23438 0.35547 0.23438 0.65625z"/>
  </symbol>
  <symbol id="e" overflow="visible">
   <path d="m0.96875-2.4531v0.53125h0.625v0.4375h-0.625v0.8125c0 0.09375 0.015625 0.15625 0.046875 0.1875s0.097656 0.046875 0.20312 0.046875h0.32812v0.4375h-0.53125c-0.24219 0-0.41406-0.046875-0.51562-0.14062-0.10547-0.10156-0.15625-0.28125-0.15625-0.53125v-0.8125h-0.29688v-0.4375h0.29688v-0.53125z"/>
  </symbol>
  <symbol id="g" overflow="visible">
   <path d="m1.5938-1.6406v-1.0156h0.625v2.6562h-0.625v-0.28125c-0.085938 0.11719-0.17969 0.19922-0.28125 0.25-0.09375 0.050781-0.21094 0.078125-0.34375 0.078125-0.24219 0-0.4375-0.09375-0.59375-0.28125-0.14844-0.1875-0.21875-0.42578-0.21875-0.71875 0-0.28906 0.070312-0.53125 0.21875-0.71875 0.15625-0.1875 0.35156-0.28125 0.59375-0.28125 0.125 0 0.23828 0.027344 0.34375 0.078125 0.10156 0.054688 0.19531 0.13281 0.28125 0.23438zm-0.40625 1.25c0.13281 0 0.23438-0.046875 0.29688-0.14062 0.070313-0.10156 0.10938-0.24219 0.10938-0.42188 0-0.1875-0.039062-0.32812-0.10938-0.42188-0.0625-0.09375-0.16406-0.14062-0.29688-0.14062-0.125 0-0.22656 0.046875-0.29688 0.14062-0.0625 0.09375-0.09375 0.23438-0.09375 0.42188 0 0.17969 0.03125 0.32031 0.09375 0.42188 0.070313 0.09375 0.17188 0.14062 0.29688 0.14062z"/>
  </symbol>
  <symbol id="f" overflow="visible">
   <path d="m1.3125-0.39062c0.13281 0 0.23438-0.046875 0.29688-0.14062 0.070313-0.10156 0.10938-0.24219 0.10938-0.42188 0-0.1875-0.039062-0.32812-0.10938-0.42188-0.0625-0.09375-0.16406-0.14062-0.29688-0.14062-0.13672 0-0.24219 0.046875-0.3125 0.14062-0.0625 0.09375-0.09375 0.23438-0.09375 0.42188 0 0.17969 0.03125 0.32031 0.09375 0.42188 0.070312 0.09375 0.17578 0.14062 0.3125 0.14062zm-0.40625-1.25c0.082031-0.10156 0.17578-0.17969 0.28125-0.23438 0.10156-0.050781 0.22266-0.078125 0.35938-0.078125 0.22656 0 0.41406 0.09375 0.5625 0.28125 0.15625 0.1875 0.23438 0.42969 0.23438 0.71875 0 0.29297-0.078125 0.53125-0.23438 0.71875-0.14844 0.1875-0.33594 0.28125-0.5625 0.28125-0.13672 0-0.25781-0.027344-0.35938-0.078125-0.10547-0.050781-0.19922-0.13281-0.28125-0.25v0.28125h-0.60938v-2.6562h0.60938z"/>
  </symbol>
  <symbol id="k" overflow="visible">
   <path d="m0.046875-1.9219h0.60938l0.51562 1.3125 0.4375-1.3125h0.60938l-0.8125 2.1094c-0.074219 0.20703-0.16797 0.35156-0.28125 0.4375-0.10547 0.082031-0.24609 0.125-0.42188 0.125h-0.35938v-0.39062h0.20312c0.10156 0 0.17578-0.023437 0.21875-0.0625 0.050781-0.03125 0.085937-0.089844 0.10938-0.17188l0.015625-0.046875z"/>
  </symbol>
  <symbol id="b" overflow="visible">
   <path d="m1.2031-1.5156c-0.13672 0-0.24219 0.046875-0.3125 0.14062-0.074219 0.09375-0.10938 0.23438-0.10938 0.42188 0 0.17969 0.035156 0.32031 0.10938 0.42188 0.070313 0.09375 0.17578 0.14062 0.3125 0.14062 0.13281 0 0.23438-0.046875 0.29688-0.14062 0.070312-0.10156 0.10938-0.24219 0.10938-0.42188 0-0.1875-0.039063-0.32812-0.10938-0.42188-0.0625-0.09375-0.16406-0.14062-0.29688-0.14062zm0-0.4375c0.33203 0 0.58594 0.089844 0.76562 0.26562 0.1875 0.17969 0.28125 0.42188 0.28125 0.73438s-0.09375 0.55859-0.28125 0.73438c-0.17969 0.17969-0.43359 0.26562-0.76562 0.26562-0.33594 0-0.59375-0.085938-0.78125-0.26562-0.17969-0.17578-0.26562-0.42188-0.26562-0.73438s0.085938-0.55469 0.26562-0.73438c0.1875-0.17578 0.44531-0.26562 0.78125-0.26562z"/>
  </symbol>
  <symbol id="j" overflow="visible">
   <path d="m0.28125-0.75v-1.1719h0.60938v0.20312 0.39062 0.3125 0.34375c0.007813 0.0625 0.023437 0.10938 0.046875 0.14062 0.019531 0.03125 0.050781 0.0625 0.09375 0.09375 0.039062 0.023438 0.085938 0.03125 0.14062 0.03125 0.13281 0 0.23828-0.046875 0.3125-0.14062 0.070313-0.10156 0.10938-0.24219 0.10938-0.42188v-0.95312h0.60938v1.9219h-0.60938v-0.28125c-0.09375 0.11719-0.19531 0.19922-0.29688 0.25-0.10547 0.050781-0.21875 0.078125-0.34375 0.078125-0.21875 0-0.38672-0.066406-0.5-0.20312-0.11719-0.13281-0.17188-0.33203-0.17188-0.59375z"/>
  </symbol>
  <symbol id="i" overflow="visible">
   <path d="m1.5469-2.6562v0.40625h-0.32812c-0.09375 0-0.15625 0.015625-0.1875 0.046875s-0.046875 0.085937-0.046875 0.15625v0.125h0.51562v0.4375h-0.51562v1.4844h-0.60938v-1.4844h-0.3125v-0.4375h0.3125v-0.125c0-0.20703 0.054688-0.35938 0.17188-0.45312 0.11328-0.10156 0.28906-0.15625 0.53125-0.15625z"/>
  </symbol>
  <symbol id="h" overflow="visible">
   <path d="m2.0625-1.5938c0.082031-0.125 0.17578-0.21094 0.28125-0.26562 0.10156-0.0625 0.21875-0.09375 0.34375-0.09375 0.22656 0 0.39844 0.070313 0.51562 0.20312 0.11328 0.13672 0.17188 0.32812 0.17188 0.57812v1.1719h-0.625v-1-0.03125c0.007812-0.019531 0.015625-0.046875 0.015625-0.078125 0-0.13281-0.023437-0.23438-0.0625-0.29688-0.042969-0.0625-0.10938-0.09375-0.20312-0.09375-0.11719 0-0.20312 0.046875-0.26562 0.14062s-0.09375 0.23438-0.09375 0.42188v0.9375h-0.625v-1c0-0.20703-0.023437-0.34375-0.0625-0.40625-0.03125-0.0625-0.09375-0.09375-0.1875-0.09375-0.11719 0-0.20312 0.054688-0.26562 0.15625-0.0625 0.09375-0.09375 0.23047-0.09375 0.40625v0.9375h-0.60938v-1.9219h0.60938v0.28125c0.070312-0.10156 0.15625-0.17969 0.25-0.23438 0.10156-0.050781 0.21094-0.078125 0.32812-0.078125 0.13281 0 0.25 0.03125 0.34375 0.09375 0.10156 0.0625 0.17969 0.15234 0.23438 0.26562z"/>
  </symbol>
  <symbol id="q" overflow="visible">
   <path d="m2.2188-1.1719v1.1719h-0.60938v-0.89062c0-0.16406-0.007813-0.28125-0.015625-0.34375-0.011719-0.0625-0.027344-0.10938-0.046875-0.14062-0.023437-0.039062-0.054687-0.070312-0.09375-0.09375-0.042969-0.019531-0.089844-0.03125-0.14062-0.03125-0.125 0-0.22656 0.054688-0.29688 0.15625-0.074219 0.09375-0.10938 0.23047-0.10938 0.40625v0.9375h-0.60938v-2.6562h0.60938v1.0156c0.09375-0.10156 0.19141-0.17969 0.29688-0.23438 0.10156-0.050781 0.21875-0.078125 0.34375-0.078125 0.21875 0 0.38281 0.070313 0.5 0.20312 0.11328 0.13672 0.17188 0.32812 0.17188 0.57812z"/>
  </symbol>
  <symbol id="p" overflow="visible">
   <path d="m0.32812-2.5469h0.73438l0.92188 1.75v-1.75h0.625v2.5469h-0.73438l-0.9375-1.75v1.75h-0.60938z"/>
  </symbol>
  <symbol id="o" overflow="visible">
   <path d="m2.2188-1.1719v1.1719h-0.60938v-0.89062c0-0.16406-0.007813-0.28125-0.015625-0.34375-0.011719-0.0625-0.027344-0.10938-0.046875-0.14062-0.023437-0.039062-0.054687-0.070312-0.09375-0.09375-0.042969-0.019531-0.089844-0.03125-0.14062-0.03125-0.125 0-0.22656 0.054688-0.29688 0.15625-0.074219 0.09375-0.10938 0.23047-0.10938 0.40625v0.9375h-0.60938v-1.9219h0.60938v0.28125c0.09375-0.10156 0.19141-0.17969 0.29688-0.23438 0.10156-0.050781 0.21875-0.078125 0.34375-0.078125 0.21875 0 0.38281 0.070313 0.5 0.20312 0.11328 0.13672 0.17188 0.32812 0.17188 0.57812z"/>
  </symbol>
  <symbol id="n" overflow="visible">
   <path d="m0.32812-2.5469h1.0781c0.33203 0 0.58203 0.074219 0.75 0.21875 0.17578 0.13672 0.26562 0.33984 0.26562 0.60938 0 0.27344-0.089844 0.48047-0.26562 0.625-0.16797 0.13672-0.41797 0.20312-0.75 0.20312h-0.42188v0.89062h-0.65625zm0.65625 0.46875v0.71875h0.35938c0.125 0 0.22266-0.03125 0.29688-0.09375 0.070313-0.0625 0.10938-0.14844 0.10938-0.26562 0-0.11328-0.039062-0.20312-0.10938-0.26562-0.074219-0.0625-0.17188-0.09375-0.29688-0.09375z"/>
  </symbol>
  <symbol id="m" overflow="visible">
   <path d="m0.29688-1.9219h0.60938v1.8906c0 0.25-0.0625 0.44141-0.1875 0.57812-0.125 0.13281-0.30469 0.20312-0.53125 0.20312h-0.29688v-0.39062h0.09375c0.125 0 0.20703-0.027344 0.25-0.078125 0.039063-0.054688 0.0625-0.15625 0.0625-0.3125zm0-0.73438h0.60938v0.5h-0.60938z"/>
  </symbol>
  <symbol id="l" overflow="visible">
   <path d="m1.8438-1.8594v0.5c-0.085938-0.050781-0.16797-0.085937-0.25-0.10938-0.085938-0.03125-0.17188-0.046875-0.26562-0.046875-0.16797 0-0.30469 0.054687-0.40625 0.15625-0.09375 0.09375-0.14062 0.23047-0.14062 0.40625 0 0.17969 0.046875 0.32031 0.14062 0.42188 0.10156 0.09375 0.23828 0.14062 0.40625 0.14062 0.09375 0 0.17969-0.007813 0.26562-0.03125 0.09375-0.03125 0.17578-0.078125 0.25-0.14062v0.5c-0.09375 0.042969-0.19531 0.066406-0.29688 0.078125-0.09375 0.019531-0.19531 0.03125-0.29688 0.03125-0.34375 0-0.61719-0.085938-0.8125-0.26562-0.1875-0.17578-0.28125-0.42188-0.28125-0.73438s0.09375-0.55469 0.28125-0.73438c0.19531-0.17578 0.46875-0.26562 0.8125-0.26562 0.10156 0 0.20312 0.011719 0.29688 0.03125 0.10156 0.011719 0.20312 0.03125 0.29688 0.0625z"/>
  </symbol>
 </defs>
 <g>
  <path fill = "#656565" d="m278.9 406.47c4.4062 0 8.9102-1.3086 13.375-3.8906l178.31-102.95c8.1211-4.6875 12.781-11.844 12.781-19.633 0-7.7852-4.6523-14.945-12.781-19.641l-178.31-102.95c-4.4688-2.5781-8.9688-3.8867-13.375-3.8867-12.152 0-20.645 9.6719-20.645 23.523v205.89c0 13.855 8.4922 23.527 20.645 23.527zm0.29687-229.42c0-1.1719 0.14844-1.9883 0.29688-2.4961 0.48047 0.11719 1.2578 0.38281 2.3125 0.99219l178.31 102.95c1.0117 0.58984 1.6445 1.125 2.0156 1.5039-0.36719 0.37891-1.0039 0.91406-2.0156 1.4961l-178.32 102.95c-1.0547 0.60938-1.8242 0.875-2.3047 0.99219-0.14844-0.50781-0.29688-1.3203-0.29688-2.4922z"/>
  <path fill = "#656565" d="m350 539.35c143 0 259.35-116.35 259.35-259.35 0-143.01-116.35-259.35-259.35-259.35-143.01 0-259.36 116.34-259.36 259.35 0 143 116.34 259.35 259.35 259.35zm0-497.76c131.46 0 238.41 106.95 238.41 238.41s-106.95 238.41-238.41 238.41-238.41-106.95-238.41-238.41 106.95-238.41 238.41-238.41z"/>
  
 </g>
</svg>
