<?xml version="1.0" encoding="UTF-8"?>
<svg width="23px" height="23px" version="1.1" viewBox="0 0 700 700" xmlns="http://www.w3.org/2000/svg">
 <g fill-rule="evenodd">
  <path fill = "#fff" d="m262.5 116.67c0-35.441 28.727-64.168 64.168-64.168h46.664c35.441 0 64.168 28.727 64.168 64.168v163.33c0 35.438-28.727 64.168-64.168 64.168h-46.664c-35.441 0-64.168-28.73-64.168-64.168zm64.168-29.168c-16.109 0-29.168 13.059-29.168 29.168v163.33c0 16.109 13.059 29.168 29.168 29.168h46.664c16.109 0 29.168-13.059 29.168-29.168v-163.33c0-16.109-13.059-29.168-29.168-29.168z"/>
  <path fill = "#fff" d="m210 215.83c9.6641 0 17.5 7.8359 17.5 17.5v46.668c0 54.77 44.398 99.168 99.168 99.168h46.664c54.77 0 99.168-44.398 99.168-99.168v-46.668c0-9.6641 7.8359-17.5 17.5-17.5s17.5 7.8359 17.5 17.5v46.668c0 74.098-60.07 134.17-134.17 134.17h-46.664c-74.098 0-134.17-60.07-134.17-134.17v-46.668c0-9.6641 7.8359-17.5 17.5-17.5z"/>
  <path fill = "#fff" d="m350 379.17c9.6641 0 17.5 7.8359 17.5 17.5v116.66c0 9.6641-7.8359 17.5-17.5 17.5s-17.5-7.8359-17.5-17.5v-116.66c0-9.6641 7.8359-17.5 17.5-17.5z"/>
 </g>
</svg>
