<?xml version="1.0" encoding="UTF-8"?>
<svg width="55px" height="55px" version="1.1" viewBox="0 0 700 700" xmlns="http://www.w3.org/2000/svg">
 <g>
  <path fill = "#FC6A3F" d="m542.5 70h-385c-9.6602 0-17.5-7.8398-17.5-17.5s7.8398-17.5 17.5-17.5h385c9.6602 0 17.5 7.8398 17.5 17.5s-7.8398 17.5-17.5 17.5z"/>
  <path fill = "#FC6A3F" d="m595 490h-490c-19.285 0-35-15.68-35-35v-315c0-19.285 15.715-35 35-35h490c19.32 0 35 15.715 35 35v315c0 19.32-15.68 35-35 35zm0-35v17.5zm-490-315v315h490v-315z"/>
  <path fill = "#FC6A3F" d="m350 367.5c-38.605 0-70-31.395-70-70s31.395-70 70-70 70 31.395 70 70-31.395 70-70 70zm0-105c-19.285 0-35 15.715-35 35 0 19.32 15.715 35 35 35 19.32 0 35-15.68 35-35 0-19.285-15.68-35-35-35z"/>
  <path fill = "#FC6A3F" d="m87.5 245c-9.6602 0-17.5-7.8398-17.5-17.5s7.8398-17.5 17.5-17.5c48.23 0 87.5-39.27 87.5-87.5 0-9.6602 7.8398-17.5 17.5-17.5s17.5 7.8398 17.5 17.5c0 67.551-54.949 122.5-122.5 122.5z"/>
  <path fill = "#FC6A3F" d="m612.5 245c-67.551 0-122.5-54.949-122.5-122.5 0-9.6602 7.8398-17.5 17.5-17.5s17.5 7.8398 17.5 17.5c0 48.23 39.234 87.5 87.5 87.5 9.6602 0 17.5 7.8398 17.5 17.5s-7.8398 17.5-17.5 17.5z"/>
  <path fill = "#FC6A3F" d="m192.5 490c-9.6602 0-17.5-7.8398-17.5-17.5 0-48.266-39.27-87.5-87.5-87.5-9.6602 0-17.5-7.8398-17.5-17.5s7.8398-17.5 17.5-17.5c67.551 0 122.5 54.949 122.5 122.5 0 9.6602-7.8398 17.5-17.5 17.5z"/>
  <path fill = "#FC6A3F" d="m507.5 490c-9.6602 0-17.5-7.8398-17.5-17.5 0-67.551 54.949-122.5 122.5-122.5 9.6602 0 17.5 7.8398 17.5 17.5s-7.8398 17.5-17.5 17.5c-48.266 0-87.5 39.234-87.5 87.5 0 9.6602-7.8398 17.5-17.5 17.5z"/>
 </g>
</svg>
