<?xml version="1.0" encoding="UTF-8"?>
<svg width="60px" height="60px" version="1.1" viewBox="0 0 700 700" xmlns="http://www.w3.org/2000/svg">
 <g>
  <path fill = "#3473B8" d="m120.4 369.25 37.102 65.273c2.043 3.4961 5.2383 6.1719 9.0352 7.5781 3.7969 1.4023 7.9648 1.4453 11.789 0.125l52.5-17.5c15.672 13.062 33.418 23.41 52.5 30.625l10.852 54.426v-0.003906c0.81641 4.0156 3.0156 7.6133 6.2148 10.172 3.1953 2.5547 7.1914 3.9141 11.285 3.8281h75.074c4.9727-0.085938 9.6992-2.168 13.125-5.7734 2.1406-2.3633 3.5898-5.2695 4.1992-8.3984l2.8008-12.949v-1.2266l9.8008-49.875-35-6.8242-9.9766 50.051-44.973-0.003906-9.9766-50.051v0.003906c-0.60938-3.082-2.0352-5.9414-4.1289-8.2812-2.0938-2.3398-4.7773-4.0742-7.7695-5.0195-21.414-6.6914-41.078-18.047-57.578-33.25-2.2969-2.1602-5.1367-3.6562-8.2188-4.3359-3.082-0.67578-6.2852-0.51172-9.2812 0.48438l-48.648 16.449-23.625-40.598 38.5-33.773v-0.003906c2.4336-2.1289 4.2266-4.8945 5.1875-7.9805 0.95703-3.0898 1.0391-6.3828 0.23828-9.5195-4.9023-22.012-4.9023-44.836 0-66.848 0.80078-3.1328 0.71875-6.4297-0.23828-9.5156-0.96094-3.0898-2.7539-5.8555-5.1875-7.9844l-38.5-32.551 23.801-40.426 48.477 16.449h-0.003906c2.9961 0.99609 6.1992 1.1641 9.2812 0.48437 3.082-0.67578 5.9219-2.1719 8.2188-4.332 16.5-15.203 36.164-26.559 57.578-33.25 5.8672-1.7734 10.383-6.4844 11.898-12.426l9.9766-50.051h46.551l9.9727 50.051c0.60938 3.082 2.0352 5.9414 4.1289 8.2812s4.7773 4.0742 7.7695 5.0195c21.52 6.5742 41.266 17.941 57.75 33.25 2.3008 2.1602 5.1406 3.6562 8.2227 4.332 3.0781 0.67969 6.2852 0.51172 9.2773-0.48437l48.301-16.449 23.801 39.551-38.324 33.773c-4.4727 4-6.5859 10.008-5.6016 15.926l1.5742 8.3984v0.003906c-0.066407 0.28516-0.066407 0.58594 0 0.875 1.2148 8.2852 1.7969 16.648 1.75 25.023-0.082032 11.344-1.2539 22.656-3.5 33.773-1.2852 6.1133 0.78125 12.449 5.4258 16.625l38.676 33.777-23.273 40.25-48.477-16.449c-2.9922-0.99609-6.1992-1.1641-9.2812-0.48437-3.0781 0.67578-5.918 2.1719-8.2188 4.332-7.5039 6.9648-15.715 13.121-24.5 18.375l17.5 29.926c7.8047-4.668 15.234-9.9336 22.227-15.75l52.5 17.5c3.875 1.5391 8.1719 1.6445 12.117 0.30078 3.9453-1.3477 7.2812-4.0625 9.4062-7.6523l37.625-65.273c2.0312-3.4922 2.7891-7.5742 2.1523-11.562-0.63672-3.9844-2.6367-7.6289-5.6523-10.312l-41.648-36.75c1.3984-10.145 2.043-20.383 1.9219-30.625 0.046874-9.9609-0.71484-19.91-2.2734-29.75 0.10938-0.28125 0.10938-0.59375 0-0.875l41.648-36.574c3.0195-2.6836 5.0156-6.3281 5.6523-10.312 0.64062-3.9883-0.12109-8.0742-2.1523-11.562l-37.273-65.277c-2.0195-3.5234-5.1992-6.2383-9-7.6758-3.7969-1.4375-7.9805-1.5078-11.824-0.19922l-52.5 17.5c-15.691-13.031-33.434-23.379-52.5-30.625l-10.852-54.426v0.003906c-0.81641-4.0156-3.0156-7.6133-6.2148-10.172-3.1953-2.5547-7.1914-3.9141-11.285-3.8281h-75.25c-4.0938-0.085937-8.0859 1.2734-11.285 3.8281-3.1953 2.5586-5.3945 6.1562-6.2148 10.172l-11.199 54.773c-19.086 7.2109-36.828 17.562-52.5 30.625l-52.5-17.5c-3.9375-1.6211-8.332-1.7539-12.359-0.36719-4.0273 1.3867-7.4102 4.1914-9.5156 7.8906l-37.102 65.277c-2.0078 3.5078-2.7383 7.6055-2.0703 11.594 0.67188 3.9883 2.7031 7.6211 5.7461 10.281l41.648 36.574h0.003906c-3.5039 20.266-3.5039 40.984 0 61.25l-41.824 36.75h-0.003906c-3.0156 2.6836-5.0117 6.3281-5.6523 10.312-0.63672 3.9883 0.125 8.0703 2.1523 11.562z"/>
  <path fill = "#3473B8" d="m229.95 207.9c-21.383 35.594-25.863 78.844-12.234 118.06 13.633 39.223 43.973 70.367 82.82 85.027 38.852 14.656 82.203 11.312 118.34-9.1289 36.145-20.441 61.348-55.871 68.801-96.719 7.457-40.848-3.6016-82.898-30.191-114.79-26.59-31.891-65.965-50.336-107.49-50.348-37.633-0.16406-73.711 15-99.926 42l24.852 24.5c25.414-26.277 62.539-37.664 98.316-30.16 35.781 7.5039 65.199 32.848 77.918 67.121 12.715 34.273 6.9453 72.676-15.281 101.7-22.223 29.027-57.793 44.609-94.199 41.266-36.402-3.3398-68.543-25.133-85.113-57.719-16.574-32.586-15.258-71.395 3.4844-102.78z"/>
 </g>
</svg>
