<?xml version="1.0" encoding="UTF-8"?>
<svg width="60px" height="60px" version="1.1" viewBox="0 0 700 700" xmlns="http://www.w3.org/2000/svg">
 <path fill = "#FE9C53" d="m506.01 356.02-11.34-124.74c-2.4531-28.164-13.121-54.992-30.68-77.148-17.555-22.16-41.234-38.676-68.09-47.5 4.2734-7.6289 6.543-16.219 6.6016-24.965 0-18.758-10.008-36.09-26.25-45.469-16.242-9.3789-36.258-9.3789-52.5 0-16.242 9.3789-26.25 26.711-26.25 45.469 0.058594 8.7461 2.3281 17.336 6.6016 24.965-26.855 8.8242-50.535 25.34-68.09 47.5-17.559 22.156-28.227 48.984-30.68 77.148l-11.34 124.74c-18.156 1.5352-34.215 12.375-42.434 28.637s-7.4141 35.621 2.1172 51.148c9.5352 15.527 26.438 25 44.656 25.027h76.418c1.8047 25.629 16.531 48.574 39.074 60.895 22.543 12.32 49.809 12.32 72.352 0 22.543-12.32 37.27-35.266 39.074-60.895h76.418c18.219-0.027343 35.121-9.5 44.656-25.027 9.5312-15.527 10.336-34.887 2.1172-51.148s-24.277-27.102-42.434-28.637zm-156.01-291.85c4.6406 0 9.0938 1.8438 12.375 5.125s5.125 7.7305 5.125 12.375c0 4.6406-1.8438 9.0898-5.125 12.375-3.2812 3.2812-7.7344 5.125-12.375 5.125s-9.0938-1.8438-12.375-5.125c-3.2812-3.2852-5.125-7.7344-5.125-12.375 0-4.6445 1.8438-9.0938 5.125-12.375s7.7344-5.125 12.375-5.125zm0 431.67v-0.003907c-9.793-0.027343-19.25-3.582-26.641-10.008s-12.219-15.297-13.609-24.992h80.5c-1.3906 9.6953-6.2188 18.566-13.609 24.992s-16.848 9.9805-26.641 10.008zm151.67-70-303.34-0.003907c-6.25 0-12.027-3.3359-15.152-8.75-3.1289-5.4141-3.1289-12.086 0-17.5 3.125-5.4141 8.9023-8.75 15.152-8.75h11.668c4.3672 0 8.5781-1.6289 11.801-4.5742 3.2266-2.9453 5.2344-6.9883 5.6289-11.336l12.762-140.49v-0.003906c3.3203-36.895 24.945-69.652 57.562-87.207 32.621-17.555 71.871-17.555 104.49 0 32.617 17.555 54.242 50.312 57.562 87.207l12.762 140.49v0.003906c0.39453 4.3477 2.4023 8.3906 5.6289 11.336 3.2227 2.9453 7.4336 4.5742 11.801 4.5742h11.668c6.25 0 12.027 3.3359 15.152 8.75 3.1289 5.4141 3.1289 12.086 0 17.5-3.125 5.4141-8.9023 8.75-15.152 8.75z"/>
</svg>
